<?xml version="1.0" standalone="no"?>
<!DOCTYPE svg PUBLIC "-//W3C//DTD SVG 20010904//EN"
 "http://www.w3.org/TR/2001/REC-SVG-20010904/DTD/svg10.dtd">
<svg version="1.0" xmlns="http://www.w3.org/2000/svg"
 width="1116.000000pt" height="1116.000000pt" viewBox="0 0 1116.000000 1116.000000"
 preserveAspectRatio="xMidYMid meet">

<g transform="translate(0.000000,1116.000000) scale(0.100000,-0.100000)"
fill="#000000" stroke="none">
<path d="M0 10270 c0 -109 2 -130 15 -130 8 0 15 -4 15 -10 0 -5 8 -10 18 -10
25 0 65 -47 58 -66 -8 -21 -52 -11 -84 18 l-22 21 0 -48 c0 -34 5 -52 18 -61
16 -13 16 -13 0 -14 -15 0 -18 -9 -18 -50 0 -46 2 -50 23 -50 13 0 32 -7 43
-15 10 -8 28 -15 39 -15 12 0 26 -5 31 -10 6 -6 40 -12 75 -13 35 -1 67 -6 70
-11 4 -5 10 1 14 13 3 12 15 21 25 21 25 0 45 32 59 95 27 114 -38 243 -161
321 -21 14 -38 28 -38 34 0 5 -16 17 -35 26 -20 9 -43 27 -53 39 -20 25 -54
45 -76 45 -14 0 -16 -19 -16 -130z m91 -25 c-1 -15 -24 -12 -29 3 -3 9 2 13
12 10 10 -1 17 -7 17 -13z m49 -30 c10 -13 9 -15 -9 -15 -12 0 -21 6 -21 15 0
8 4 15 9 15 5 0 14 -7 21 -15z"/>
<path d="M38 9843 c7 -3 16 -2 19 1 4 3 -2 6 -13 5 -11 0 -14 -3 -6 -6z"/>
<path d="M0 6083 l0 -3316 60 -59 c33 -32 63 -58 67 -58 3 0 12 -8 19 -17 8
-11 13 -13 14 -5 0 7 15 12 39 12 31 0 40 4 44 21 5 17 10 19 41 13 29 -5 36
-3 36 10 0 12 10 16 44 16 25 0 47 4 50 9 3 5 21 5 41 1 20 -4 38 -4 41 1 3 5
45 9 95 9 60 0 89 4 89 11 0 8 18 10 57 6 38 -4 52 -3 43 3 -8 5 -13 10 -10
10 3 1 61 3 129 5 71 2 128 8 134 14 7 7 62 11 149 11 85 0 138 4 138 10 0 6
33 10 80 10 47 0 80 4 80 10 0 6 9 10 20 10 11 0 20 5 20 10 0 6 13 10 29 10
40 0 84 18 76 30 -4 7 2 9 17 5 13 -4 44 1 69 9 24 9 59 16 77 16 17 0 32 5
32 10 0 6 15 8 38 4 38 -6 122 10 122 24 0 4 15 8 33 9 102 6 167 35 167 75 0
14 40 58 53 58 4 0 17 10 28 21 17 17 19 23 8 31 -11 8 -10 9 4 4 10 -3 20 0
22 7 4 8 22 11 55 9 42 -3 49 -1 49 15 0 10 4 38 10 63 5 25 6 49 3 55 -10 16
-11 36 -1 29 5 -3 9 2 9 10 0 9 4 16 8 16 5 0 14 11 20 25 6 14 17 24 23 23 6
-2 14 3 17 11 3 10 0 12 -12 8 -9 -4 -16 -2 -16 3 0 6 5 11 10 11 38 5 60 21
60 43 0 11 5 28 10 36 8 13 10 12 10 -2 0 -10 5 -18 10 -18 6 0 10 7 10 15 0
8 7 15 16 15 13 0 14 3 5 14 -10 11 -7 19 11 36 20 19 23 19 26 5 3 -12 10
-15 25 -11 12 3 42 6 67 6 34 0 41 3 30 11 -11 7 9 8 70 3 47 -5 104 -8 126
-9 29 0 40 -4 37 -12 -4 -10 12 -13 61 -13 60 0 86 -11 54 -23 -7 -2 -1 -8 15
-12 15 -4 27 -11 27 -16 0 -5 14 -9 30 -9 27 0 30 3 30 30 0 19 7 34 20 42 11
7 20 23 20 35 0 13 9 32 20 43 11 11 20 28 20 38 1 19 29 73 30 57 1 -19 29
40 30 62 0 12 5 25 10 28 6 3 10 1 10 -4 0 -18 29 -12 50 9 11 11 28 20 38 20
9 1 42 9 72 20 30 11 70 19 88 20 20 0 31 4 27 10 -3 6 3 10 14 10 38 0 51 11
51 44 0 37 15 56 46 56 12 0 28 7 35 16 7 9 23 20 36 25 26 10 30 27 8 35 -8
4 -15 15 -15 25 0 10 -7 19 -15 19 -8 0 -15 9 -15 20 0 11 -4 20 -10 20 -5 0
-10 7 -10 16 0 9 -10 24 -22 35 -18 14 -20 21 -10 27 10 7 10 11 -1 21 -19 15
-104 4 -88 -12 6 -6 11 -25 10 -41 l-1 -31 -14 33 c-8 17 -19 32 -24 32 -6 0
-10 15 -10 34 0 19 -4 37 -9 41 -5 3 -19 30 -30 61 -15 40 -18 60 -11 73 7 14
6 22 -4 30 -7 6 -16 34 -18 61 -6 59 -6 59 -41 62 -27 2 -27 3 -26 80 1 43 5
78 10 78 5 0 9 7 9 15 0 9 17 26 37 38 l37 21 -37 9 c-22 5 -37 15 -37 24 0
11 -6 10 -26 -6 -15 -12 -30 -21 -35 -21 -10 0 -37 58 -41 89 -2 19 -10 25
-33 27 -53 5 -73 10 -87 21 -7 6 -25 13 -40 17 -19 4 -28 13 -28 26 0 13 -7
20 -20 20 -14 0 -20 6 -19 23 0 12 3 16 6 10 6 -17 40 -17 46 0 3 6 6 2 6 -10
1 -13 7 -23 16 -23 8 0 15 -4 15 -10 0 -5 9 -10 20 -10 11 0 20 -4 20 -10 0
-5 17 -10 38 -10 34 0 39 4 50 33 7 18 12 41 12 50 0 14 10 17 50 17 49 0 50
1 50 30 0 28 -3 30 -34 30 -28 0 -35 4 -39 23 l-4 22 -2 -22 c-1 -18 -7 -23
-29 -23 -46 0 -70 35 -29 43 19 4 19 4 -5 6 -34 1 -43 16 -39 66 3 46 13 55
60 55 34 0 34 0 16 -20 -18 -20 -18 -21 1 -14 33 12 35 15 24 29 -7 8 -10 18
-7 22 3 4 -22 9 -55 9 -33 1 -64 6 -69 11 -5 5 -11 34 -13 65 -2 31 -6 60 -9
65 -2 4 -4 75 -3 157 2 136 4 150 22 165 11 9 19 21 17 27 -2 6 7 16 19 22 13
6 17 11 11 11 -15 1 -18 41 -3 41 6 0 10 10 10 23 1 12 14 38 30 57 17 19 30
44 30 56 0 12 5 24 10 26 6 2 14 29 19 60 6 31 16 66 23 77 10 17 10 25 0 41
-7 11 -8 20 -3 20 19 0 61 48 61 69 0 11 4 21 9 21 5 0 22 13 37 30 16 16 41
35 56 41 30 12 36 24 16 32 -10 4 -10 6 0 6 20 2 14 27 -16 59 -26 27 -33 30
-70 25 -42 -6 -42 -5 -42 26 0 25 -4 31 -21 31 -16 0 -19 4 -14 23 4 15 3 18
-3 9 -5 -8 -11 -13 -13 -12 -2 1 -12 -2 -22 -5 -9 -4 -34 -4 -55 0 -20 5 -44
9 -52 10 -53 7 -86 22 -132 61 -48 41 -68 49 -110 46 -9 -1 -37 19 -62 45 -49
49 -51 61 -18 111 16 24 52 28 112 12 180 -48 257 -62 220 -41 -8 5 -17 9 -20
8 -3 0 -25 11 -50 24 -25 14 -61 31 -80 39 -19 7 -43 20 -52 28 -10 8 -18 12
-18 7 0 -4 -7 -2 -15 5 -7 6 -17 32 -21 56 -4 26 -12 44 -19 44 -26 0 -25 37
1 83 14 26 29 47 32 47 4 0 18 9 31 19 l25 19 -77 -2 -77 -1 0 34 0 35 -33
-32 c-37 -36 -47 -39 -47 -17 0 8 -7 15 -15 15 -8 0 -15 9 -15 19 0 18 -74 91
-92 91 -4 0 -8 19 -8 43 0 32 5 45 20 55 33 20 55 1 52 -45 -2 -28 2 -43 15
-54 27 -24 52 -30 63 -16 45 54 100 133 100 143 0 7 7 17 16 22 18 10 21 102
2 102 -4 0 -8 18 -8 41 0 28 4 39 12 36 7 -2 12 -14 11 -26 -2 -11 2 -21 7
-21 6 0 8 -12 4 -27 -6 -28 -6 -28 10 -6 16 22 26 106 14 118 -3 4 -15 2 -26
-4 -30 -16 -38 16 -12 44 11 12 20 25 20 28 0 11 59 67 70 67 4 0 16 3 25 6
14 6 13 1 -4 -30 -28 -49 -26 -65 4 -36 14 13 25 29 25 37 0 7 7 13 15 13 8 0
15 5 15 10 0 6 4 10 10 10 5 0 9 -8 7 -17 -4 -33 18 -27 38 10 11 20 29 38 40
39 11 2 19 9 18 15 -2 9 56 45 77 48 3 0 21 9 41 18 26 13 42 15 60 8 24 -9
24 -9 3 -18 -17 -6 -20 -12 -13 -30 10 -26 40 -30 62 -8 10 10 17 11 19 4 2
-7 17 0 36 16 23 19 30 22 25 9 -4 -11 -3 -15 5 -10 6 3 16 -3 22 -14 6 -11
19 -20 28 -20 10 0 29 -13 42 -29 19 -21 29 -26 41 -20 13 6 18 3 22 -11 5
-19 6 -19 38 -3 18 9 28 18 21 21 -17 5 -4 22 17 22 11 0 21 -9 24 -22 5 -17
9 -19 20 -10 8 7 16 9 20 6 3 -3 3 4 0 16 -4 16 -2 21 8 18 7 -2 16 -15 20
-29 l6 -24 8 28 c8 30 0 77 -14 77 -5 0 -11 -9 -14 -21 -3 -12 -10 -18 -16
-14 -14 8 -14 70 -1 96 12 22 30 25 30 5 0 -21 19 -30 34 -17 10 9 15 8 19 -2
4 -11 20 -13 70 -8 5 1 6 15 2 31 -4 17 -2 36 3 43 17 20 18 53 3 71 -13 15
-13 19 0 27 12 7 12 9 -1 9 -11 0 -11 3 -2 12 7 7 12 20 12 30 0 10 5 18 10
18 6 0 10 20 10 44 0 26 6 48 15 56 8 7 15 21 15 32 0 11 14 31 30 45 22 18
30 33 30 58 0 46 10 71 21 53 6 -8 9 -1 9 22 l0 34 -34 -34 c-33 -35 -76 -105
-76 -126 0 -6 -11 -21 -25 -34 -14 -13 -25 -34 -25 -47 0 -13 -4 -23 -10 -23
-5 0 -10 -9 -10 -19 0 -10 -7 -21 -15 -25 -8 -3 -15 -18 -16 -33 0 -15 -3 -22
-6 -15 -8 19 -23 14 -23 -8 0 -11 -4 -20 -10 -20 -5 0 -10 -7 -10 -15 0 -8 5
-15 12 -15 6 0 9 -3 6 -6 -4 -3 -16 -1 -27 6 -14 7 -21 7 -21 0 0 -5 -11 -20
-25 -32 -13 -11 -22 -25 -19 -30 3 -4 -4 -8 -15 -8 -11 0 -23 -5 -26 -10 -13
-21 -27 4 -22 39 3 20 3 30 0 24 -2 -7 -14 -13 -25 -13 -15 0 -18 -5 -14 -16
5 -14 1 -16 -34 -10 -41 6 -50 0 -28 -22 9 -9 9 -12 1 -12 -7 0 -14 4 -18 10
-9 14 -35 0 -35 -19 0 -18 -39 -72 -40 -55 0 6 6 17 14 23 7 6 11 22 8 36 -4
25 -18 33 -24 15 -3 -9 -43 -15 -153 -25 -16 -1 -66 -6 -109 -10 -72 -7 -79
-6 -73 8 4 11 1 17 -8 17 -8 0 -36 23 -63 50 -27 28 -57 50 -66 50 -9 0 -16 5
-16 10 0 6 -7 10 -16 10 -16 0 8 -30 94 -116 60 -60 54 -88 -9 -43 -16 11 -29
18 -29 15 0 -3 -13 0 -30 5 -16 6 -27 15 -24 20 3 5 -2 12 -10 15 -9 3 -16 14
-16 24 0 23 -95 131 -131 149 -16 8 -29 18 -29 23 0 11 -37 47 -43 42 -7 -7
-67 65 -67 81 0 8 7 15 15 15 8 0 15 5 15 10 0 13 -17 13 -25 0 -3 -5 -19 -7
-35 -3 -30 5 -30 5 -30 -43 0 -59 38 -224 56 -242 7 -7 11 -19 8 -26 -4 -9 3
-16 18 -18 29 -4 88 14 88 27 0 5 7 0 15 -12 15 -21 22 -23 118 -24 9 0 17 -5
17 -10 0 -6 -16 -8 -37 -5 -21 3 -30 3 -20 0 28 -9 21 -51 -10 -68 l-28 -15
24 -7 c23 -7 23 -8 6 -21 -11 -7 -14 -13 -9 -13 6 0 9 -14 6 -31 -3 -23 -7
-28 -14 -18 -7 11 -11 11 -15 2 -2 -7 -14 -13 -25 -13 -27 0 -63 -48 -59 -78
2 -19 -1 -23 -13 -19 -12 5 -16 0 -16 -18 0 -21 -5 -25 -30 -25 -19 0 -33 -7
-40 -20 -12 -22 -36 -27 -43 -7 -7 21 -47 -23 -47 -52 0 -20 2 -23 10 -11 10
15 10 10 14 -120 1 -32 -2 -36 -24 -35 -15 0 -24 6 -22 14 5 22 -17 39 -59 46
-33 6 -39 10 -34 26 5 14 1 19 -14 19 -23 0 -28 -15 -8 -23 9 -4 9 -8 1 -14
-7 -4 -14 -19 -17 -33 -2 -14 -5 7 -6 47 -1 61 -4 74 -21 83 -14 8 -20 21 -20
45 l0 35 -60 0 -60 0 0 34 c0 26 -5 36 -21 41 -11 4 -88 4 -170 0 -148 -8
-149 -8 -149 -31 0 -23 -3 -24 -70 -24 -56 0 -70 3 -70 15 0 8 -4 15 -10 15
-5 0 -10 14 -10 30 l0 30 -69 0 c-49 0 -74 5 -85 15 -8 8 -26 15 -40 15 -14 0
-26 5 -26 10 0 6 -9 10 -20 10 -18 0 -20 7 -20 60 0 53 -2 60 -20 60 -13 0
-20 7 -20 18 0 10 -9 24 -20 32 -11 8 -20 26 -20 41 l0 26 -192 0 c-106 -1
-223 2 -260 7 -63 7 -68 9 -68 32 0 17 -6 24 -20 24 -11 0 -20 5 -20 10 0 6
-9 10 -20 10 -11 0 -20 4 -20 9 0 5 -9 13 -20 16 -11 3 -20 15 -20 26 0 16 -7
19 -55 19 -77 0 -105 15 -105 57 l0 33 -56 0 c-74 0 -84 12 -84 94 l0 66 -52
0 -53 0 3 49 4 50 46 3 c43 3 47 5 50 31 l3 27 -80 0 -81 0 0 80 c0 47 4 80
10 80 6 0 10 20 10 45 0 25 -4 45 -10 45 -5 0 -10 11 -10 25 0 21 -5 25 -30
25 -16 0 -30 5 -30 10 0 6 -9 10 -20 10 -18 0 -20 7 -20 70 l0 70 -30 0 c-16
0 -30 5 -30 10 0 6 -18 10 -40 10 -40 0 -40 0 -40 39 l0 38 -70 7 c-66 7 -70
9 -70 32 0 17 -5 24 -20 24 -11 0 -20 5 -20 10 0 6 -13 10 -30 10 l-30 0 0
-3317z m2945 2235 c7 -7 1 -8 -20 -4 -16 4 -34 12 -40 18 -7 7 -1 8 20 4 17
-4 35 -12 40 -18z m0 -58 c-3 -5 -1 -10 4 -10 6 0 11 -7 11 -15 0 -18 -40 -20
-86 -3 -32 11 -33 12 -11 24 27 15 91 18 82 4z m1125 -146 c0 -54 -20 -51 -21
4 -1 33 -2 34 -9 12 l-8 -25 -1 28 c-1 21 4 27 19 27 17 0 20 -7 20 -46z
m-962 -29 c0 -14 -4 -25 -9 -25 -5 0 -9 4 -9 9 0 5 -3 16 -6 25 -4 10 -1 16 9
16 9 0 15 -10 15 -25z m2 -102 c0 -81 -5 -79 -14 5 -5 41 -3 62 4 62 6 0 10
-27 10 -67z m800 21 c0 -31 -4 -44 -12 -42 -22 8 -30 32 -19 61 16 41 31 32
31 -19z m-626 -38 c-3 -9 -10 -16 -15 -16 -6 0 -5 9 1 21 13 24 24 20 14 -5z
m-241 -66 c3 -11 1 -20 -4 -20 -5 0 -9 9 -9 20 0 11 2 20 4 20 2 0 6 -9 9 -20z
m-86 -108 c14 -9 11 -76 -3 -79 -5 -2 -23 0 -41 3 -25 5 -30 9 -20 18 7 7 20
15 30 19 20 7 23 33 5 40 -9 4 -8 6 2 6 8 0 20 -3 27 -7z m-55 -610 c38 -78
58 -174 40 -186 -6 -3 -22 -2 -36 4 -18 6 -26 6 -26 -1 0 -22 -44 -4 -50 21
l-6 25 -15 -22 c-7 -13 -22 -23 -31 -23 -10 0 -18 -4 -18 -10 0 -14 -64 -12
-78 2 -9 9 -12 8 -12 -5 0 -16 -35 -37 -61 -37 -5 0 -9 12 -9 28 0 19 9 33 30
47 16 11 30 23 30 28 0 4 14 7 30 7 19 0 30 5 30 14 0 8 6 21 13 28 7 7 28 38
47 68 42 68 60 90 74 90 6 -1 28 -36 48 -78z m-178 -36 c-5 -21 -12 -26 -35
-26 -19 0 -29 5 -29 15 0 10 10 15 30 15 21 0 30 5 30 17 0 9 2 14 5 11 4 -3
3 -17 -1 -32z m-74 -10 c0 -2 -7 -6 -15 -10 -8 -3 -15 -1 -15 4 0 6 7 10 15
10 8 0 15 -2 15 -4z m190 -165 c0 -5 -9 -11 -20 -14 -13 -3 -20 0 -20 9 0 8 9
14 20 14 11 0 20 -4 20 -9z m-247 -25 c8 -20 -2 -26 -40 -26 -18 0 -33 -4 -33
-10 0 -5 -12 -10 -27 -10 -35 -1 -63 -21 -64 -46 0 -14 -2 -15 -6 -4 -3 8 -12
21 -21 28 -14 10 -12 12 10 12 15 0 40 11 56 25 17 14 35 25 41 25 6 0 11 5
11 10 0 16 67 12 73 -4z m159 2 c-7 -7 -12 -25 -12 -40 0 -21 6 -29 24 -34 14
-3 29 -3 34 0 6 3 8 -3 5 -14 -3 -11 -9 -20 -14 -20 -5 0 -9 -12 -9 -26 0 -14
-4 -23 -9 -20 -5 3 -11 -3 -14 -14 -4 -14 -14 -20 -35 -20 -17 0 -38 -7 -46
-16 -15 -14 -16 -11 -16 29 l0 44 -35 -11 c-19 -6 -35 -17 -35 -23 0 -8 -13
-13 -32 -13 -28 1 -31 2 -17 13 9 7 14 18 12 25 -3 6 2 12 11 12 11 0 16 9 16
26 0 17 6 28 20 31 11 3 20 14 20 24 0 14 7 19 29 19 16 0 31 6 34 14 3 8 18
16 34 19 15 2 32 5 38 6 5 0 4 -4 -3 -11z m103 -138 c3 -5 1 -10 -4 -10 -6 0
-11 5 -11 10 0 6 2 10 4 10 3 0 8 -4 11 -10z m-335 -59 c0 -12 -29 -35 -36
-28 -7 6 17 36 29 37 4 0 7 -4 7 -9z m415 -61 c3 -5 1 -10 -4 -10 -6 0 -11 5
-11 10 0 6 2 10 4 10 3 0 8 -4 11 -10z m32 -72 c-3 -8 -6 -5 -6 6 -1 11 2 17
5 13 3 -3 4 -12 1 -19z m-2627 -198 c0 -11 -4 -20 -10 -20 -5 0 -10 9 -10 20
0 11 5 20 10 20 6 0 10 -9 10 -20z m3413 -2377 c-7 -2 -19 -2 -25 0 -7 3 -2 5
12 5 14 0 19 -2 13 -5z m-80 -130 c-7 -2 -19 -2 -25 0 -7 3 -2 5 12 5 14 0 19
-2 13 -5z m-763 -313 c0 -6 -31 -9 -77 -8 -73 1 -75 2 -28 8 79 11 105 11 105
0z m143 -47 c-7 -2 -21 -2 -30 0 -10 3 -4 5 12 5 17 0 24 -2 18 -5z m-1306
-639 c-3 -3 -12 -4 -19 -1 -8 3 -5 6 6 6 11 1 17 -2 13 -5z"/>
<path d="M2888 8243 c6 -2 18 -2 25 0 6 3 1 5 -13 5 -14 0 -19 -2 -12 -5z"/>
<path d="M2726 7044 c-9 -23 -2 -28 13 -10 7 8 8 17 3 20 -6 3 -13 -1 -16 -10z"/>
<path d="M2842 7020 c0 -14 2 -19 5 -12 2 6 2 18 0 25 -3 6 -5 1 -5 -13z"/>
<path d="M7893 8873 c-30 -3 -44 -9 -48 -23 -3 -10 -14 -22 -25 -25 -20 -6
-70 3 -70 14 0 3 -16 7 -35 8 -19 2 -35 -1 -35 -6 0 -12 -38 -21 -42 -9 -3 9
-84 -4 -123 -21 -60 -26 -79 -31 -110 -31 -19 0 -37 -4 -40 -10 -9 -14 -55
-13 -55 2 0 7 -7 5 -17 -5 -10 -8 -34 -18 -54 -22 -30 -6 -38 -12 -43 -36 -6
-30 -38 -41 -52 -17 -5 7 -10 4 -16 -11 -5 -15 -14 -21 -23 -17 -8 3 -15 2
-15 -3 0 -8 -5 -10 -65 -16 -22 -3 -53 -8 -69 -11 -19 -5 -31 -2 -37 7 -6 10
-9 6 -9 -13 0 -15 -8 -34 -17 -43 -15 -16 -18 -15 -34 7 -11 14 -19 18 -19 9
0 -7 -12 -24 -27 -37 -22 -19 -36 -23 -65 -20 -21 3 -40 0 -44 -5 -3 -5 -14
-7 -25 -4 -17 6 -19 1 -19 -34 0 -45 -12 -51 -43 -23 -11 9 -17 11 -13 5 12
-22 -2 -33 -29 -23 -23 9 -25 8 -19 -14 6 -25 -22 -70 -38 -60 -5 3 -7 0 -6
-6 2 -8 -65 -41 -80 -39 -11 2 -69 -15 -79 -23 -12 -10 -102 -4 -148 9 -17 5
-16 1 8 -22 42 -43 36 -55 -30 -56 -58 0 -125 -17 -76 -18 37 -1 37 -21 0 -21
-41 0 -81 -35 -57 -50 11 -7 8 -10 -12 -10 -17 0 -31 -8 -38 -20 -6 -11 -17
-20 -25 -20 -8 0 -20 -9 -27 -19 -9 -15 -19 -18 -45 -14 -38 6 -46 -12 -10
-27 12 -5 16 -9 8 -9 -7 -1 -11 -7 -8 -14 3 -9 -9 -20 -33 -31 -26 -11 -40
-24 -42 -39 -2 -14 -17 -29 -43 -42 -22 -11 -42 -21 -44 -22 -3 -2 -6 -22 -10
-64 -1 -11 -14 -19 -36 -23 -42 -8 -56 -26 -21 -26 14 0 26 -4 26 -10 0 -5
-12 -10 -27 -10 -14 0 -24 -3 -20 -6 3 -3 -6 -17 -20 -30 l-26 -24 23 0 c23 0
23 0 4 -15 -22 -17 -38 -20 -29 -5 3 6 -4 10 -17 9 -13 0 -17 -3 -10 -6 7 -2
17 -14 23 -25 7 -13 7 -18 1 -14 -6 3 -17 -1 -25 -9 -9 -8 -22 -15 -30 -15
-18 0 -33 -33 -18 -38 21 -7 11 -26 -36 -68 -37 -34 -44 -43 -29 -44 19 0 19
0 1 -13 -10 -8 -15 -19 -11 -26 5 -7 1 -20 -7 -29 -15 -17 -17 -27 -20 -86 -1
-19 -5 -32 -9 -29 -5 2 -8 -3 -8 -11 0 -9 -4 -16 -10 -16 -5 0 -10 -6 -10 -14
0 -8 -9 -18 -20 -21 -19 -6 -24 -16 -21 -42 1 -6 -3 -14 -9 -18 -5 -3 -10 -13
-10 -22 0 -14 3 -14 20 2 20 18 20 18 9 -13 -6 -18 -15 -35 -20 -38 -5 -3 -9
-10 -9 -16 0 -6 11 -3 25 6 22 15 25 15 25 1 0 -9 -7 -18 -15 -21 -8 -4 -15
-12 -15 -20 0 -8 -3 -14 -8 -14 -4 0 -13 -10 -21 -22 -13 -21 -13 -22 2 -9 25
20 21 3 -8 -35 -14 -18 -25 -39 -25 -48 0 -8 -6 -21 -13 -28 -8 -7 -19 -23
-26 -36 -6 -12 -18 -22 -25 -22 -8 0 -19 -7 -27 -16 -10 -13 -10 -17 1 -24 12
-7 11 -10 -5 -16 -27 -11 -55 -36 -49 -46 3 -4 -9 -5 -26 -2 -25 5 -29 4 -24
-9 4 -12 1 -14 -15 -10 -11 3 -17 11 -15 18 3 7 -5 15 -18 19 -14 5 -18 9 -10
13 19 7 14 23 -7 23 -11 0 -21 5 -23 12 -3 9 -16 8 -52 -1 -27 -6 -51 -10 -53
-7 -3 3 -14 -4 -26 -14 -11 -11 -25 -17 -30 -13 -6 3 -7 1 -3 -5 4 -7 17 -12
29 -13 18 0 17 -3 -11 -17 -26 -13 -33 -21 -29 -39 2 -13 0 -23 -4 -23 -17 0
-9 -15 13 -25 13 -6 26 -24 31 -45 5 -19 13 -38 18 -41 5 -3 10 -32 12 -65 2
-71 -39 -224 -88 -323 -18 -36 -43 -109 -55 -161 -37 -158 -54 -206 -141 -410
-117 -274 -154 -493 -105 -619 9 -24 58 -105 109 -179 l91 -134 -23 -92 c-32
-127 -70 -247 -88 -275 -8 -13 -13 -34 -10 -48 3 -17 -1 -28 -14 -36 -11 -7
-19 -19 -19 -27 0 -8 -7 -28 -15 -44 -8 -15 -15 -37 -15 -47 0 -10 -4 -21 -10
-24 -5 -3 -10 -21 -10 -40 0 -18 -6 -40 -13 -47 -8 -7 -12 -19 -9 -26 4 -14
-14 -16 -23 -2 -4 6 -10 8 -15 5 -5 -3 -11 -1 -15 5 -3 5 -19 10 -35 10 -16 0
-32 5 -35 10 -3 6 -21 10 -38 10 -18 0 -42 7 -54 15 -19 14 -22 13 -33 -15 -7
-17 -10 -44 -6 -65 5 -27 4 -35 -7 -35 -14 0 -31 -55 -22 -70 3 -5 -4 -6 -15
-3 -15 4 -20 0 -20 -16 0 -11 5 -21 10 -21 18 0 11 -15 -12 -25 -16 -7 -25
-22 -29 -47 -3 -21 -13 -46 -22 -56 -21 -23 -21 -39 -2 -58 8 -9 15 -22 15
-30 0 -17 -37 -19 -43 -1 -2 6 -4 -8 -2 -33 1 -31 -4 -52 -17 -69 -13 -17 -15
-28 -8 -35 17 -17 11 -26 -15 -26 -28 0 -35 -27 -10 -36 19 -8 20 -44 0 -44
-9 0 -12 6 -9 15 4 9 0 15 -10 15 -12 0 -14 -7 -9 -32 3 -18 10 -34 15 -36 14
-6 9 -34 -10 -51 -9 -9 -18 -29 -18 -46 -5 -215 -4 -280 6 -280 8 0 7 -56 -1
-60 -5 -4 -9 -17 -9 -30 0 -35 -10 -54 -25 -49 -21 9 -28 -16 -10 -36 9 -10
22 -46 29 -80 11 -52 11 -63 -1 -67 -8 -3 -20 3 -28 13 -11 16 -16 17 -27 6
-10 -10 -9 -14 10 -18 16 -5 22 -14 23 -38 1 -27 2 -28 7 -8 l7 23 17 -21 c10
-11 13 -20 8 -20 -6 0 -10 -9 -10 -20 0 -11 5 -20 10 -20 6 0 10 -14 10 -32 0
-17 6 -39 14 -47 21 -25 37 -79 24 -83 -7 -3 0 -23 16 -51 31 -57 33 -77 6
-77 -11 0 -20 -7 -20 -15 0 -8 5 -15 10 -15 6 0 10 -13 10 -30 0 -16 4 -30 9
-30 5 0 11 -13 13 -30 3 -18 0 -30 -6 -30 -14 0 -39 -56 -33 -72 3 -8 6 -6 6
4 1 22 31 58 48 58 7 0 13 -8 14 -17 1 -12 4 -9 8 7 6 20 9 13 15 -35 4 -33
14 -70 22 -82 13 -20 12 -24 -8 -43 -18 -17 -19 -20 -5 -20 15 0 21 -11 19
-31 -1 -4 8 -15 18 -24 11 -10 20 -24 20 -31 0 -7 10 -20 21 -28 15 -10 23
-28 26 -63 2 -26 1 -43 -4 -37 -4 6 -19 13 -31 17 -21 5 -23 3 -18 -16 3 -12
6 -32 6 -44 0 -14 6 -23 15 -23 8 0 15 -9 15 -19 0 -10 7 -21 15 -25 8 -3 15
-12 15 -21 0 -18 16 -20 24 -2 9 21 56 -44 50 -70 -4 -14 1 -27 14 -38 14 -12
18 -26 15 -51 -3 -28 0 -34 16 -34 11 0 23 -12 31 -30 7 -16 16 -30 20 -30 4
0 13 -27 21 -60 7 -33 17 -60 21 -60 4 0 8 -9 8 -20 0 -11 3 -20 8 -20 10 0
42 -75 42 -99 0 -10 9 -26 20 -36 11 -10 20 -24 20 -32 0 -7 10 -18 23 -24 12
-5 31 -22 42 -36 11 -14 38 -45 60 -70 22 -24 45 -50 50 -56 14 -17 68 -131
93 -197 38 -102 74 -248 87 -350 9 -66 17 -79 49 -73 17 4 25 0 29 -16 3 -12
1 -24 -4 -27 -6 -3 -8 -11 -6 -17 2 -7 0 -20 -5 -30 -8 -16 1 -17 128 -17
l136 0 -6 26 c-4 15 -14 33 -21 41 -18 17 -19 25 -4 40 7 7 3 10 -16 10 -31 0
-32 1 -37 32 -4 30 25 52 44 32 10 -11 10 -14 1 -18 -20 -7 -15 -20 8 -26 12
-3 22 0 26 9 9 24 20 16 42 -34 29 -65 47 -93 63 -103 7 -5 248 -9 534 -9 513
0 522 0 527 20 4 14 14 20 35 20 17 0 32 5 34 11 2 6 30 11 63 11 47 1 63 5
73 19 9 13 25 19 50 19 28 0 33 3 22 10 -11 7 0 10 38 10 28 0 52 -4 52 -10 0
-5 7 -10 16 -10 8 0 13 4 10 9 -4 5 -2 21 4 36 9 23 15 27 39 22 23 -5 31 -1
41 18 8 14 25 26 44 30 17 3 41 10 54 16 12 5 32 13 45 18 12 6 31 11 42 13
11 2 20 8 20 13 1 25 31 55 55 55 14 0 40 9 59 21 19 12 45 19 58 16 18 -3 23
0 24 17 0 11 3 15 6 9 9 -24 23 -13 23 17 0 27 3 30 33 30 24 0 28 -3 17 -10
-12 -8 -10 -10 10 -10 28 1 60 21 60 39 0 6 12 11 26 11 30 0 97 37 89 50 -8
13 46 42 71 37 19 -3 28 3 44 29 10 19 26 34 35 34 8 0 15 5 15 10 0 6 5 10
11 10 5 0 24 13 42 30 34 32 52 37 61 18 3 -7 4 -4 1 7 -4 16 4 24 40 38 25
11 45 25 45 32 0 16 55 39 74 32 10 -4 19 4 28 24 14 31 76 79 103 79 8 0 15
5 15 11 0 5 -5 7 -10 4 -17 -10 -11 4 10 25 12 12 25 18 30 15 4 -3 14 8 22
25 7 16 18 30 25 30 17 0 34 35 27 54 -4 11 -1 16 10 16 9 0 16 5 16 10 0 14
28 12 33 -2 2 -8 8 -9 13 -4 5 5 4 11 -3 13 -21 8 -15 30 13 48 21 14 24 19
13 26 -12 7 -12 10 -1 18 8 4 13 11 13 15 -3 19 0 27 8 21 5 -3 12 -1 16 5 3
5 0 10 -7 11 -7 0 -3 5 10 11 12 6 22 17 22 25 0 22 38 53 67 53 30 0 94 -40
135 -85 85 -93 92 -269 21 -584 -14 -63 -34 -129 -43 -147 -10 -18 -17 -34
-14 -36 2 -3 -5 -13 -16 -23 -11 -10 -20 -24 -20 -31 0 -22 -48 -86 -53 -72
-3 7 -8 -2 -12 -20 -5 -19 -16 -39 -26 -45 -11 -7 -19 -18 -19 -25 0 -8 -11
-23 -25 -34 -14 -11 -34 -37 -45 -58 -11 -21 -29 -41 -40 -45 -11 -3 -20 -12
-20 -20 0 -7 -3 -21 -6 -30 -6 -14 0 -16 37 -13 38 3 47 8 77 48 86 115 137
176 195 231 15 15 27 31 27 36 0 6 9 18 19 27 11 10 25 31 31 47 7 16 17 26
23 22 5 -3 7 -2 4 3 -3 6 3 29 14 53 10 24 19 49 19 56 0 7 5 15 11 17 7 2 12
32 14 68 1 36 8 85 14 109 7 24 11 58 9 77 -5 61 55 81 142 46 85 -34 185 -90
210 -118 57 -66 100 -122 100 -131 0 -6 7 -13 15 -17 8 -3 15 -10 15 -16 0 -6
15 -32 33 -58 68 -96 116 -275 101 -373 -5 -27 -3 -39 5 -39 8 0 6 -6 -4 -16
-10 -10 -14 -25 -11 -38 3 -12 6 -38 6 -59 l0 -38 92 3 91 3 14 40 c7 22 29
72 47 110 19 39 37 82 40 98 6 24 70 97 86 97 7 0 5 54 -4 68 -13 21 -27 13
-42 -23 -8 -20 -18 -34 -23 -31 -4 3 -6 -7 -4 -22 4 -21 2 -24 -6 -12 -9 13
-12 12 -17 -5 -6 -23 -57 -51 -62 -35 -2 5 -15 10 -29 10 -15 0 -36 12 -53 30
-15 17 -32 30 -38 30 -25 0 -75 123 -71 173 2 18 0 37 -4 44 -4 6 -8 41 -8 78
-1 36 -4 64 -6 61 -3 -3 -14 6 -25 19 -11 14 -26 25 -34 25 -8 0 -14 5 -14 10
0 6 -25 10 -55 10 -47 0 -60 4 -83 27 -16 16 -34 29 -41 31 -7 1 -20 9 -28 17
-8 8 -23 15 -34 15 -10 0 -19 5 -19 11 0 5 -16 17 -36 25 -20 8 -38 24 -41 35
-3 10 -14 19 -25 19 -10 0 -16 -4 -13 -10 12 -19 -14 -10 -28 11 -8 11 -30 31
-48 45 -30 22 -31 24 -10 24 20 0 21 1 7 16 -9 8 -16 20 -16 25 0 5 -9 9 -20
9 -11 0 -23 7 -26 15 -4 8 -12 15 -20 15 -21 0 -67 47 -58 61 4 8 3 9 -5 5
-13 -8 -46 25 -86 84 -12 19 -39 51 -59 69 -20 19 -36 41 -36 48 0 6 -12 24
-26 38 -17 17 -23 32 -19 45 5 15 3 18 -9 14 -9 -4 -20 4 -29 23 -8 15 -24 37
-36 47 -28 25 -27 50 4 74 14 11 25 25 25 30 0 6 6 15 13 19 6 4 17 17 23 28
13 24 89 38 108 20 12 -12 37 -19 130 -34 28 -4 52 -13 54 -19 2 -7 13 -10 28
-6 16 4 43 -3 82 -23 31 -16 69 -32 83 -36 14 -4 38 -18 55 -32 16 -14 35 -25
42 -25 6 0 12 -6 12 -13 0 -15 25 -37 80 -72 22 -14 40 -30 40 -35 0 -6 9 -10
20 -10 10 0 24 -9 30 -20 15 -28 62 -51 81 -39 10 6 10 9 2 9 -7 0 -13 6 -13
13 0 13 -40 37 -61 37 -6 0 -17 6 -25 14 -11 11 -11 16 -1 20 6 3 2 3 -10 0
-17 -4 -23 -1 -23 10 0 9 -4 16 -8 16 -37 0 -70 81 -39 93 10 4 13 -1 10 -17
-3 -16 4 -30 27 -49 36 -31 46 -33 54 -12 3 8 15 15 26 15 11 0 20 5 20 10 0
17 18 11 45 -16 14 -14 30 -22 35 -19 6 3 13 -2 17 -12 4 -10 18 -33 31 -50
17 -23 20 -33 11 -34 -8 -1 -3 -5 11 -9 l25 -8 -28 -1 c-38 -1 -24 -21 15 -21
23 0 29 4 24 15 -5 13 -2 14 15 4 13 -6 39 -8 65 -4 43 6 44 5 44 -20 0 -42
21 -56 65 -44 29 8 40 8 47 -3 7 -9 8 -7 4 7 -10 37 7 46 38 20 16 -14 41 -25
55 -25 20 0 27 -5 28 -20 1 -11 -5 -21 -13 -21 -14 -1 -27 -4 -41 -9 -5 -1
-17 -1 -28 0 -20 2 -20 2 0 -20 11 -12 33 -29 49 -37 38 -20 60 -42 52 -51 -4
-3 -10 -2 -14 4 -4 6 -27 21 -52 35 -71 38 -110 70 -110 90 0 12 -7 19 -20 19
-21 0 -28 -28 -10 -46 7 -7 6 -16 -3 -29 -17 -23 -50 -16 -91 20 -16 14 -35
25 -43 25 -7 0 -19 11 -25 25 -6 14 -16 25 -22 25 -6 0 -21 3 -33 6 -14 4 -23
2 -23 -5 0 -6 7 -11 16 -11 8 0 12 -5 9 -10 -3 -6 2 -13 11 -17 10 -3 25 -14
34 -22 34 -32 70 -61 78 -61 4 0 13 -9 20 -20 7 -11 18 -20 25 -20 7 0 28 -15
46 -34 19 -19 48 -40 65 -47 17 -7 35 -19 39 -26 4 -7 14 -13 21 -13 8 0 28
-13 45 -29 17 -16 38 -31 46 -35 8 -3 15 -10 15 -15 0 -5 17 -15 38 -22 20 -6
39 -15 42 -19 8 -12 60 -21 60 -11 0 5 -6 11 -12 14 -7 2 -9 8 -5 13 4 5 11 4
15 -2 9 -14 68 -34 100 -34 20 0 23 -3 14 -12 -9 -9 -18 -9 -38 1 -18 8 -29 9
-34 2 -4 -7 -18 -7 -44 0 -21 6 -39 9 -41 7 -2 -2 8 -17 23 -33 73 -81 124
-147 156 -206 20 -35 50 -82 66 -104 17 -22 37 -54 45 -72 8 -17 19 -34 25
-38 5 -3 10 -15 10 -26 0 -10 4 -19 8 -19 5 0 9 -15 9 -32 2 -59 18 -173 27
-187 6 -9 5 -12 -2 -8 -6 5 -12 -8 -16 -33 -3 -22 -9 -58 -12 -80 l-6 -39 344
0 c302 -1 341 1 323 14 -11 8 -26 19 -33 25 -7 6 -16 9 -21 6 -11 -7 -57 42
-48 51 4 3 7 1 7 -5 0 -13 41 -16 78 -6 21 6 32 34 12 34 -5 0 -10 7 -10 16 0
14 -7 15 -37 11 -20 -4 -39 -10 -42 -15 -3 -5 -14 -11 -23 -15 -12 -4 -15 -2
-11 9 3 8 0 21 -7 29 -11 13 -6 15 31 15 24 0 58 -4 76 -9 24 -7 35 -6 44 5
13 16 46 19 51 4 4 -11 118 -1 118 10 0 4 -14 10 -31 14 -17 3 -28 10 -25 15
3 4 17 6 31 3 l25 -4 0 1326 0 1326 -50 0 c-27 0 -50 -4 -50 -10 0 -5 -9 -10
-20 -10 -17 0 -20 -7 -20 -42 l0 -41 -107 6 c-58 4 -121 7 -140 7 -29 0 -33 3
-33 25 0 14 -4 25 -10 25 -5 0 -10 9 -10 20 0 19 -7 20 -160 20 -100 0 -160
-4 -160 -10 0 -6 -30 -10 -70 -10 l-70 0 0 -35 c0 -19 -4 -35 -10 -35 -5 0
-10 16 -10 35 0 19 -4 35 -10 35 -5 0 -10 -15 -10 -34 l0 -33 -132 -7 c-168
-9 -168 -9 -168 -52 l0 -34 -69 0 c-38 0 -71 -4 -73 -9 -5 -15 -218 -20 -233
-5 -15 15 -55 15 -55 -1 0 -5 -4 -4 -9 4 -7 11 -10 9 -16 -9 -7 -22 -8 -22
-18 -5 -7 14 -7 20 1 23 7 2 12 23 12 48 0 24 5 44 10 44 6 0 10 11 10 25 0
14 -4 25 -10 25 -5 0 -10 20 -10 45 0 25 -4 45 -10 45 -5 0 -10 12 -10 28 0
21 -2 24 -10 12 -7 -10 -8 5 -3 48 6 61 5 62 -18 62 -17 0 -30 -10 -45 -38
-11 -20 -26 -36 -32 -35 -7 2 -12 -4 -12 -12 0 -8 -4 -15 -9 -15 -5 0 -11 -12
-13 -27 -2 -22 -9 -29 -30 -31 -21 -3 -28 -9 -28 -25 0 -16 -3 -18 -12 -9 -18
18 -28 15 -28 -9 0 -25 -70 -99 -94 -99 -9 0 -16 -6 -16 -14 0 -7 -13 -29 -30
-47 -16 -19 -30 -37 -30 -41 0 -5 -6 -8 -13 -8 -8 0 -42 -14 -76 -31 -34 -17
-68 -28 -76 -26 -9 4 -16 -4 -20 -24 -5 -20 -13 -29 -26 -29 -10 0 -19 -4 -19
-10 0 -5 -12 -10 -26 -10 -22 0 -26 -4 -22 -23 4 -21 1 -23 -44 -22 -27 1 -54
-3 -61 -7 -8 -5 -4 -8 11 -8 12 0 22 -4 22 -10 0 -5 -24 -10 -54 -10 -51 0
-54 -1 -59 -29 -5 -23 -13 -30 -42 -35 -19 -4 -35 -11 -35 -15 0 -5 -11 -6
-25 -3 -21 4 -25 1 -25 -21 0 -21 -6 -26 -37 -32 -24 -4 -39 -3 -41 4 -5 14
-42 15 -42 1 0 -5 7 -10 16 -10 10 0 2 -12 -22 -35 -32 -31 -46 -37 -70 -34
-4 0 -10 -5 -15 -13 -5 -7 -23 -12 -41 -11 -20 1 -24 -1 -10 -4 25 -5 27 -17
10 -56 -12 -25 -18 -28 -57 -25 -37 2 -45 -1 -47 -17 -1 -10 -10 -22 -18 -27
-9 -5 -16 -13 -16 -18 0 -15 -35 -47 -59 -55 -13 -4 -21 -15 -21 -29 0 -19 -4
-22 -25 -18 -21 4 -25 1 -25 -21 0 -14 3 -32 6 -41 7 -17 34 -22 34 -6 0 6 9
10 20 10 13 0 20 -7 20 -20 0 -11 6 -20 13 -20 7 -1 5 -6 -6 -14 -17 -13 -17
-17 -3 -44 15 -28 14 -31 -5 -44 -15 -9 -23 -28 -26 -61 -3 -26 -8 -47 -12
-48 -3 0 -27 -1 -54 -2 l-47 -2 0 38 c0 20 -4 37 -10 37 -5 0 -10 -4 -10 -10
0 -5 -7 -10 -15 -10 -8 0 -15 -5 -15 -11 0 -5 -4 -7 -10 -4 -6 4 -10 -7 -10
-25 0 -18 4 -29 10 -25 6 3 10 1 10 -4 0 -6 5 -11 11 -11 6 0 17 -6 25 -14 16
-16 9 -46 -11 -46 -7 0 -15 -6 -17 -12 -5 -14 -30 6 -41 32 -4 11 -6 11 -6 2
-2 -25 -30 -42 -71 -42 -37 0 -41 2 -35 20 5 14 2 20 -9 20 -9 0 -16 -4 -16
-10 0 -25 -18 -6 -24 25 -5 25 -15 39 -32 47 -30 14 -30 23 1 54 32 32 40 67
25 104 -15 36 2 90 29 91 13 0 13 2 1 6 -29 12 -40 32 -40 72 0 31 -4 41 -16
41 -9 0 -22 -7 -28 -16 -7 -8 -18 -12 -28 -9 -12 5 -15 15 -11 46 5 35 3 39
-16 39 -12 0 -31 -11 -43 -25 -20 -23 -23 -24 -40 -8 -11 9 -18 11 -18 5 0
-21 -36 -13 -61 14 -13 14 -23 29 -21 32 2 4 -5 9 -16 12 -19 5 -65 38 -108
78 -14 12 -29 22 -34 22 -5 0 -24 14 -42 31 -18 17 -45 37 -60 45 -15 8 -32
23 -38 34 -6 11 -17 20 -24 20 -21 0 -40 27 -24 33 7 2 0 8 -17 12 -52 12 -55
14 -55 40 0 18 -5 25 -20 25 -13 0 -20 7 -20 20 0 11 -7 20 -14 20 -8 0 -21
12 -28 28 -10 21 -21 28 -52 30 -21 2 -45 10 -53 18 -16 16 -37 19 -28 4 3 -5
1 -10 -4 -10 -6 0 -11 4 -11 8 0 5 -20 23 -45 42 -24 18 -42 37 -39 42 3 4 -2
11 -10 14 -9 4 -16 18 -16 33 0 19 -7 31 -23 38 -12 6 -31 28 -42 50 -11 23
-31 45 -47 52 -15 7 -26 18 -25 24 1 6 -10 12 -25 12 -33 1 -47 12 -24 21 21
8 20 20 -4 46 -20 22 -20 22 -20 1 0 -11 -7 -26 -15 -33 -8 -7 -15 -19 -15
-27 0 -19 -19 -6 -30 21 -7 17 -9 17 -9 4 -1 -28 -41 -23 -41 4 0 17 -3 19
-12 10 -16 -16 -28 -15 -28 2 0 22 -30 41 -62 37 -19 -2 -28 2 -26 10 2 8 -16
16 -51 21 -60 9 -79 18 -39 18 20 0 27 6 32 30 4 21 11 30 26 30 11 0 20 6 20
13 1 6 7 -3 15 -21 14 -32 16 -33 77 -32 35 0 70 0 78 0 8 0 32 3 53 6 29 5
37 3 37 -9 0 -8 6 -18 13 -20 9 -4 8 -8 -3 -16 -8 -5 -11 -14 -6 -18 5 -4 11
-3 13 4 2 7 19 15 38 19 25 4 37 1 52 -13 10 -11 19 -24 20 -29 1 -5 4 -26 8
-46 5 -26 4 -38 -4 -38 -6 0 -11 -7 -11 -16 0 -10 7 -7 25 12 17 18 25 38 25
63 0 33 4 38 43 55 23 11 56 23 73 26 26 5 30 4 27 -11 -3 -9 0 -20 5 -23 6
-3 8 -15 5 -26 -4 -16 0 -20 20 -20 13 0 30 -6 37 -14 6 -8 26 -16 43 -18 30
-3 32 -6 35 -45 2 -29 8 -43 18 -43 8 0 14 -9 14 -20 0 -16 7 -20 35 -20 28 0
35 4 35 20 0 11 5 20 10 20 6 0 10 10 10 23 0 20 5 22 43 21 73 -2 77 -3 77
-24 0 -11 6 -20 14 -20 8 0 17 -9 21 -19 4 -13 17 -21 38 -23 26 -2 31 -7 28
-23 -2 -11 -3 -39 -2 -63 1 -43 -15 -72 -40 -72 -8 0 -9 -3 -3 -9 5 -6 27 -5
57 1 35 9 47 16 47 30 0 26 20 22 21 -4 1 -14 6 -6 12 19 9 39 11 42 38 36 27
-5 29 -4 29 28 0 45 12 61 42 58 34 -5 58 17 58 52 0 16 5 29 10 29 6 0 10 12
10 28 0 45 13 53 99 64 78 10 100 21 64 32 -15 4 -15 5 2 4 38 -1 44 2 38 18
-11 29 58 50 71 22 3 -7 3 -3 1 8 -5 18 0 23 28 28 30 6 104 66 81 66 -5 0 -2
4 6 10 22 14 8 21 -44 22 -36 0 -46 4 -46 17 0 22 -19 41 -41 41 -10 0 -19 5
-21 10 -2 7 -24 8 -60 4 -32 -4 -55 -10 -52 -15 10 -16 -52 -38 -90 -32 -42 7
-106 58 -106 84 0 38 -12 49 -51 49 -30 0 -39 4 -39 18 0 16 -40 42 -66 42 -8
0 -10 12 -7 40 l6 40 -37 0 c-34 0 -36 2 -36 33 0 24 -3 28 -10 17 -8 -13 -10
-12 -10 3 0 11 -8 17 -22 18 -13 0 -17 3 -10 6 6 2 10 9 6 14 -3 5 1 9 9 9 10
0 17 17 21 52 9 62 28 88 68 88 21 0 28 5 28 20 0 11 5 20 10 20 6 0 10 9 10
20 0 13 7 20 20 20 13 0 20 7 20 20 0 13 7 20 20 20 11 0 20 -5 20 -11 0 -5 5
-7 10 -4 6 4 8 10 5 15 -3 5 1 36 8 69 12 49 12 63 2 71 -24 20 -2 65 43 89
17 9 22 20 22 54 0 24 5 48 12 55 7 7 11 33 10 60 -1 26 1 41 4 35 11 -25 24
-12 24 23 0 27 5 37 20 41 21 6 22 7 26 68 7 110 17 195 24 195 5 0 11 24 14
53 12 110 18 147 27 147 5 0 9 9 9 20 0 13 7 20 20 20 13 0 20 7 20 20 0 11 5
20 11 20 7 0 9 14 6 38 -2 20 -2 29 0 20 6 -24 23 -23 23 1 0 30 11 51 26 51
8 0 14 9 14 19 0 30 11 51 25 51 13 0 17 31 26 193 1 15 5 27 9 27 10 0 19 49
25 136 3 38 7 95 9 126 3 32 2 59 -2 62 -4 2 -5 35 -3 73 4 58 6 63 11 33 l7
-35 2 40 c1 22 12 60 26 83 14 24 22 48 19 53 -3 5 5 13 18 18 l23 10 -26 0
c-14 1 -36 13 -50 27 l-24 27 47 -5 48 -5 -24 18 c-13 11 -41 20 -63 20 -21 1
-30 3 -20 6 21 5 23 23 2 23 -26 0 -16 29 11 36 l27 7 -24 13 c-13 7 -46 14
-74 15 -31 0 -42 3 -30 7 29 10 32 42 3 42 -19 0 -20 2 -8 10 8 5 27 10 43 10
36 0 34 12 -3 28 -20 9 -47 12 -80 7 -57 -8 -65 5 -27 42 16 15 28 19 38 12
26 -16 33 -9 11 11 -21 20 -24 20 -57 4 -19 -9 -35 -20 -35 -25 0 -5 -6 -9
-14 -9 -8 0 -17 -7 -20 -16 -8 -21 -26 -8 -26 19 0 24 -22 93 -33 103 -4 4 -7
15 -7 25 0 10 -6 24 -13 31 -8 7 -19 22 -25 34 -6 11 -23 26 -39 34 -15 8 -35
20 -44 27 -23 19 -128 53 -144 47 -9 -4 -22 7 -36 30 -14 25 -28 36 -42 35
-20 -1 -20 -2 3 -9 l25 -8 -27 -1 c-22 -1 -28 4 -28 19 0 11 7 23 15 26 23 9
7 25 -20 20 -13 -3 -29 2 -35 9 -8 10 -31 13 -78 10 -44 -2 -54 -1 -29 3 39 7
51 24 20 31 -10 2 -28 15 -41 28 -18 20 -29 24 -53 19 -26 -5 -29 -3 -29 20 0
23 -3 25 -30 19 -17 -4 -30 -2 -30 3 0 5 -26 12 -57 14 -31 3 -59 10 -61 16
-2 7 -24 12 -49 12 -41 0 -44 2 -32 16 7 9 23 20 36 25 13 5 23 15 23 24 0 8
4 15 10 15 13 0 40 66 45 110 2 19 4 38 4 43 1 4 7 7 14 7 17 0 37 42 37 79 0
25 3 28 25 23 15 -2 25 0 25 7 0 6 -9 11 -20 11 -11 0 -20 5 -20 10 0 6 16 10
35 10 19 0 35 -4 35 -10 0 -5 7 -10 15 -10 8 0 15 -4 15 -9 0 -4 17 -8 38 -7
25 1 36 -3 34 -11 -1 -9 12 -13 44 -13 27 0 43 4 39 10 -4 6 5 10 19 10 31 0
36 -29 6 -37 -37 -10 -20 -23 30 -23 43 0 50 3 50 20 0 16 9 21 49 26 37 5 51
11 54 26 8 27 -4 128 -14 128 -5 0 -9 7 -9 15 0 9 -7 18 -15 21 -16 7 -21 44
-6 44 15 0 22 33 9 42 -10 8 -10 11 0 15 6 2 12 13 12 24 0 12 7 19 20 19 21
0 25 15 21 78 -2 26 4 39 26 58 15 13 34 24 41 24 6 0 12 11 12 25 0 14 -4 25
-10 25 -16 0 -11 37 6 44 9 3 31 6 50 6 24 0 34 5 34 15 0 9 9 25 20 37 11 12
21 31 21 42 1 17 2 18 6 4 5 -19 42 -24 59 -9 13 12 76 23 69 12 -3 -5 21 -12
52 -16 32 -3 78 -11 101 -17 34 -8 46 -8 51 1 6 9 11 8 21 -4 11 -13 11 -18 2
-24 -7 -4 20 -12 60 -19 40 -6 74 -16 76 -21 2 -6 18 -11 35 -12 18 0 55 -7
82 -14 45 -11 47 -13 17 -14 -40 -1 -33 -21 7 -21 29 0 61 -26 61 -49 0 -9 9
-12 25 -9 13 3 23 2 22 -1 -3 -13 25 -51 34 -45 5 3 16 0 24 -6 12 -10 15 -10
15 0 0 9 5 8 18 -3 11 -10 35 -17 56 -17 26 0 48 -8 68 -25 16 -14 38 -25 48
-25 9 0 23 -6 29 -14 6 -8 22 -11 37 -8 33 6 72 -15 76 -42 2 -17 10 -21 40
-22 42 -1 68 -18 68 -45 0 -14 7 -19 29 -19 16 0 36 -7 45 -15 9 -10 34 -15
69 -15 35 0 57 -5 60 -12 3 -10 8 -10 21 1 14 12 19 12 26 1 5 -9 19 -11 43
-7 28 4 35 3 30 -9 -4 -11 4 -14 35 -14 23 0 42 -5 44 -12 3 -8 15 -6 41 10
28 16 37 18 37 7 0 -7 -6 -16 -12 -18 -7 -3 2 -3 20 0 30 5 32 4 32 -25 0 -44
9 -62 32 -62 16 0 19 -5 15 -25 -4 -25 -4 -25 14 -9 11 9 19 25 19 36 0 16 3
16 20 6 11 -7 20 -21 20 -30 0 -10 5 -18 10 -18 6 0 10 -9 10 -20 0 -11 5 -20
10 -20 7 0 7 -7 0 -20 -5 -11 -15 -29 -21 -41 -17 -33 -2 -34 31 -1 25 26 31
28 39 15 6 -12 17 -14 45 -9 30 6 36 11 37 34 2 24 2 25 6 4 3 -13 15 -27 27
-32 23 -9 36 -29 36 -57 0 -17 39 -52 58 -53 8 0 12 -9 10 -24 -5 -38 18 -56
72 -56 29 0 50 5 53 13 4 10 6 10 6 0 1 -7 8 -13 17 -13 11 0 15 -8 14 -27 -3
-46 -1 -53 19 -53 13 0 21 8 23 23 3 17 7 13 16 -20 7 -24 16 -43 20 -43 5 0
8 -15 9 -34 1 -19 4 -39 8 -45 8 -14 45 -14 45 -1 0 6 -8 10 -17 10 -9 0 -14
2 -11 5 3 3 19 2 36 -1 25 -5 32 -12 32 -30 0 -16 -7 -24 -22 -27 l-23 -4 23
-2 c19 -1 22 -7 22 -38 1 -34 18 -73 33 -73 3 0 8 10 11 23 3 12 3 -6 1 -40
-2 -49 0 -63 11 -63 8 0 14 9 14 20 0 11 7 20 15 20 8 0 15 -9 15 -19 0 -10 7
-22 16 -25 8 -3 14 -14 13 -23 -1 -10 1 -29 4 -43 4 -14 8 -59 11 -100 5 -96
11 -110 46 -110 19 0 30 -6 34 -17 14 -51 27 -134 21 -143 -3 -6 4 -10 18 -10
27 0 37 -21 37 -77 0 -26 4 -33 19 -33 16 0 20 -13 31 -97 6 -54 16 -103 22
-110 17 -21 -4 -233 -23 -233 -5 0 -14 -12 -19 -26 -8 -19 -16 -25 -30 -21
-15 4 -20 0 -20 -14 0 -12 -7 -19 -19 -19 -17 0 -19 -7 -18 -54 1 -41 -4 -60
-18 -76 -11 -12 -20 -29 -20 -38 -1 -9 -2 -29 -3 -44 -2 -21 -7 -28 -22 -28
-11 0 -20 5 -20 10 0 6 -13 4 -30 -5 -21 -11 -30 -23 -30 -41 0 -14 -4 -22
-10 -19 -5 3 -10 1 -10 -4 0 -6 -9 -11 -20 -11 -22 0 -40 -27 -41 -62 0 -22
-1 -22 -9 -3 -8 18 -9 17 -9 -8 -1 -15 4 -36 11 -46 6 -10 8 -26 4 -37 -7 -15
-12 -9 -26 31 -31 89 -44 115 -56 115 -6 0 -19 18 -29 40 -10 22 -21 40 -25
40 -4 0 -13 12 -21 28 -17 34 -34 52 -48 52 -6 0 -11 12 -11 28 0 21 -2 24
-10 12 -9 -13 -12 -13 -21 3 -5 9 -16 17 -23 17 -7 0 -22 14 -34 30 -13 17
-31 30 -41 30 -10 0 -30 9 -43 20 -14 10 -28 17 -31 14 -2 -3 -14 6 -25 20
-11 15 -27 26 -36 26 -9 0 -16 5 -16 11 0 7 -9 9 -22 6 -12 -4 -28 -1 -36 5
-8 7 -21 13 -30 14 -23 4 -92 38 -92 45 0 4 -17 10 -37 14 -21 4 -44 12 -51
18 -7 6 -42 10 -78 9 -36 0 -64 4 -64 9 0 6 -8 9 -17 8 -10 -1 -27 -1 -38 0
-16 2 -14 4 10 15 44 18 15 28 -36 12 -24 -8 -61 -17 -81 -19 -37 -6 -37 -5
-33 26 l5 32 -10 -32 c-10 -31 -64 -72 -78 -59 -3 3 -1 6 4 6 6 0 8 17 6 38
-5 36 -18 52 -68 78 -18 10 -20 9 -16 -11 2 -13 -1 -26 -7 -29 -11 -7 -28 20
-42 63 l-7 26 -1 -27 c-1 -20 -5 -26 -16 -22 -24 9 -40 -18 -42 -70 -3 -55
-16 -77 -35 -58 -9 9 -8 16 5 30 9 10 16 29 16 43 -1 20 -2 21 -6 4 -3 -11
-18 -31 -33 -45 -29 -27 -46 -60 -30 -60 6 0 10 -4 10 -10 0 -14 -28 -12 -33
3 -2 7 -8 8 -13 3 -5 -5 -4 -11 4 -13 19 -7 14 -67 -8 -91 -11 -12 -20 -26
-20 -32 0 -17 -26 -40 -44 -40 -9 0 -16 -7 -16 -15 0 -11 -8 -13 -30 -8 -26 5
-30 2 -30 -15 0 -13 -12 -28 -30 -39 -16 -9 -30 -21 -30 -25 0 -4 -9 -8 -20
-8 -11 0 -20 -4 -20 -10 0 -5 -7 -10 -16 -10 -8 0 -12 -5 -9 -11 4 -6 -2 -17
-14 -25 -12 -8 -21 -23 -21 -32 0 -9 -14 -25 -30 -34 -17 -9 -30 -24 -30 -33
0 -9 -6 -26 -14 -38 -20 -30 -43 -102 -51 -162 -4 -27 -11 -55 -15 -60 -5 -6
-10 -28 -12 -49 -1 -21 -8 -40 -15 -43 -16 -6 -17 -43 -2 -43 6 0 9 -8 7 -17
-2 -10 -10 -18 -18 -18 -8 0 -16 -10 -18 -23 -2 -12 -8 -22 -13 -22 -5 0 -9
-13 -9 -29 0 -17 -4 -33 -10 -36 -5 -3 -10 -45 -10 -92 0 -80 -2 -86 -28 -111
-16 -15 -31 -35 -35 -44 -3 -10 -12 -18 -18 -18 -7 0 -2 -8 9 -19 12 -10 22
-30 22 -45 0 -23 4 -26 34 -26 28 0 35 -4 39 -22 2 -13 5 2 5 32 0 30 -2 49
-5 43 -6 -15 -33 -17 -33 -3 0 6 -7 10 -15 10 -8 0 -15 5 -15 10 0 6 7 10 15
10 9 0 18 12 22 30 5 28 23 43 23 20 0 -5 10 -9 23 -7 28 3 34 27 36 140 1 50
5 87 11 87 6 0 10 16 10 35 0 19 4 35 9 35 10 0 21 -24 21 -48 0 -13 8 -17 32
-16 18 1 40 -3 48 -7 8 -4 32 -11 53 -14 23 -4 37 -11 37 -20 0 -8 7 -15 16
-15 20 0 47 -27 39 -40 -3 -5 3 -15 15 -22 11 -7 20 -18 20 -25 0 -6 11 -25
25 -41 14 -17 25 -33 25 -37 0 -3 14 -18 31 -32 16 -14 28 -32 25 -39 -3 -8
-2 -13 2 -11 10 3 53 -29 47 -35 -3 -3 4 -13 15 -23 11 -10 20 -15 20 -12 0 3
15 -10 34 -28 18 -19 37 -35 42 -35 5 0 29 -18 53 -40 24 -22 48 -40 53 -40 6
0 33 -12 62 -27 50 -27 55 -27 234 -29 100 0 185 3 188 8 3 4 16 8 30 8 20 0
24 5 24 29 0 23 7 32 30 43 17 7 30 17 30 22 0 11 53 -3 61 -16 4 -6 18 -8 33
-4 19 5 26 13 26 30 0 14 -6 26 -12 29 -7 3 8 3 33 1 41 -4 47 -2 52 17 5 20
10 21 62 14 55 -6 57 -6 50 14 -5 15 -2 21 9 21 20 0 21 -39 1 -54 -18 -13 -7
-33 20 -38 14 -2 21 3 23 20 2 12 8 20 13 17 5 -4 9 3 9 14 0 23 35 30 43 9 2
-7 2 11 -1 40 -4 41 -2 52 10 52 8 0 20 10 26 23 10 20 10 20 7 -8 -5 -44 -15
-85 -30 -125 -7 -19 -17 -44 -21 -55 -4 -11 -8 -27 -9 -36 -4 -32 -15 -66 -37
-115 -12 -27 -23 -64 -24 -82 -2 -18 -10 -39 -18 -48 -9 -8 -16 -25 -16 -37 0
-18 -2 -19 -10 -7 -7 11 -11 4 -16 -28 -4 -23 -10 -42 -15 -42 -5 0 -9 -18 -9
-40 0 -22 -4 -40 -10 -40 -5 0 -10 -8 -10 -18 0 -11 -7 -33 -16 -50 -8 -18
-13 -36 -10 -40 3 -5 -5 -8 -17 -8 -17 1 -21 -4 -19 -19 5 -29 10 -31 30 -11
9 9 28 25 41 36 16 13 22 26 18 40 -3 11 -1 20 4 20 5 0 9 6 9 13 0 7 11 23
25 35 20 17 25 31 25 66 0 54 8 76 26 76 8 0 14 10 14 23 0 15 3 18 9 9 10
-17 28 25 37 91 3 26 10 50 15 53 5 3 9 20 9 39 0 18 6 35 13 38 8 3 20 26 27
51 7 26 18 50 25 54 6 4 17 16 23 27 6 11 12 14 12 8 0 -23 20 -14 20 10 1 28
22 57 43 57 16 0 27 20 27 51 0 14 -7 19 -25 19 -28 0 -32 14 -11 35 7 8 16
32 20 54 3 23 11 41 16 41 6 0 10 7 10 16 0 8 4 13 9 10 9 -6 40 51 42 76 0 7
4 4 9 -7 8 -20 9 -19 9 1 1 12 7 27 15 33 8 6 19 25 26 41 7 16 15 28 19 26 4
-3 5 10 3 27 -3 24 3 40 22 62 14 17 26 34 26 38 0 4 10 18 23 31 12 13 27 32
34 42 11 18 12 17 14 -6 0 -14 0 -35 -1 -47 -1 -13 3 -23 9 -23 6 0 11 18 11
41 0 30 4 40 13 36 10 -4 12 6 10 37 -3 37 0 44 22 54 14 6 25 16 25 22 0 5 9
10 19 10 13 0 21 9 26 30 4 16 11 30 16 30 5 0 14 10 19 23 5 12 9 16 9 10 2
-27 21 -12 21 16 0 20 6 30 20 34 11 3 23 13 26 24 4 10 15 37 26 60 11 23 17
47 13 53 -3 5 -1 10 4 10 6 0 11 7 11 15 0 14 5 17 40 19 9 1 18 17 23 41 5
22 13 48 18 57 5 10 9 26 10 35 0 12 4 8 11 -9 5 -16 14 -28 18 -28 13 0 22
18 11 22 -5 1 -1 28 8 58 15 50 18 53 29 35 11 -20 11 -20 12 0 0 12 5 26 11
32 8 8 9 20 1 42 -8 23 -7 32 4 42 8 6 14 24 14 39 0 16 7 30 15 34 8 3 15 1
15 -4 0 -6 4 -10 8 -10 8 0 1 81 -12 131 -3 13 -3 18 0 12 3 -7 13 -13 22 -13
12 0 13 3 4 12 -15 15 -16 82 -2 73 15 -9 12 1 -10 45 -25 49 -14 90 17 59 7
-7 13 -7 17 -1 3 6 -2 13 -13 17 -20 6 -31 33 -31 75 0 24 1 24 21 -7 30 -46
55 -45 29 1 -10 19 -19 43 -20 53 -2 47 -7 84 -13 90 -4 3 -4 17 -1 29 4 17 1
26 -10 30 -9 4 -16 18 -16 33 0 19 -8 32 -25 41 -28 15 -33 35 -10 44 21 8 19
49 -5 79 -26 33 -25 46 3 40 22 -5 22 -4 2 14 -20 19 -45 57 -45 69 0 3 9 2
21 -1 20 -7 20 -6 4 19 -13 19 -15 36 -10 62 5 30 1 43 -22 77 -34 48 -41 117
-12 117 10 0 20 -6 22 -12 2 -7 3 0 1 16 -6 39 -50 136 -63 136 -6 0 -15 10
-22 22 -10 18 -9 20 5 15 19 -7 21 4 5 20 -7 7 -13 27 -15 47 -2 29 0 34 14
30 9 -3 5 4 -10 16 -16 12 -28 30 -28 40 0 10 -4 22 -10 25 -15 9 -12 25 5 25
19 0 20 16 2 27 -17 10 -29 42 -21 54 3 6 12 5 21 -3 13 -10 14 -8 11 12 -2
20 -9 25 -30 25 -20 -1 -24 2 -17 11 7 9 4 16 -10 24 -22 11 -61 79 -61 105 0
8 -4 15 -10 15 -5 0 -18 10 -30 22 l-20 22 25 21 c27 21 27 59 0 49 -10 -4
-12 1 -8 15 6 24 -4 71 -15 70 -21 -4 -30 4 -36 31 -3 17 -11 29 -18 28 -9 -2
-12 7 -10 25 4 37 -11 54 -59 67 -39 11 -49 23 -29 35 17 10 2 24 -20 18 -25
-7 -26 12 -2 27 12 8 13 13 5 16 -7 3 -13 12 -13 20 0 8 -9 14 -20 14 -13 0
-20 7 -20 20 0 11 -7 20 -15 20 -8 0 -15 4 -15 9 0 6 -12 9 -27 8 -24 -2 -28
2 -28 23 0 19 -9 30 -35 43 -19 10 -34 22 -32 27 1 6 -9 10 -23 10 -24 0 -32
10 -18 24 4 3 8 15 10 26 2 16 -1 17 -27 10 -37 -11 -60 11 -42 40 7 12 8 21
2 25 -6 3 -10 1 -10 -4 0 -24 -30 -9 -50 24 -12 20 -27 34 -33 32 -18 -6 -132
58 -132 74 0 8 -9 13 -23 12 -15 -2 -22 3 -22 15 0 20 -55 57 -85 57 -13 0
-22 10 -29 33 -9 33 -26 44 -26 16 0 -8 -5 -12 -11 -9 -6 4 -8 10 -5 13 7 6
-68 44 -104 52 -16 3 -26 13 -28 28 -3 16 -10 22 -28 22 -28 0 -33 17 -6 23
14 3 13 4 -3 4 -38 1 -43 3 -48 23 -4 15 -14 20 -36 20 -17 0 -31 4 -31 8 0 5
-18 9 -41 10 -22 1 -46 5 -52 9 -24 16 -80 31 -93 26 -8 -3 -18 6 -25 21 -14
30 -22 32 -43 11 -27 -27 -66 -11 -66 27 0 10 -4 18 -10 18 -5 0 -10 -4 -10
-10 0 -5 -16 -1 -35 10 -20 11 -51 20 -69 20 -21 0 -36 6 -40 15 -3 8 -16 15
-29 15 -14 0 -41 7 -60 15 -26 10 -43 12 -61 6 -21 -9 -25 -7 -30 15 -7 27
-21 32 -30 9 -8 -23 -25 -18 -32 10 -6 25 -19 26 -19 2 0 -5 -6 -12 -12 -14
-7 -3 -13 0 -13 7 0 6 -5 8 -12 4 -6 -4 -17 1 -24 10 -8 12 -26 17 -56 17 -51
1 -119 19 -113 30 3 4 1 10 -5 14 -5 3 -10 -1 -10 -9 0 -21 -16 -20 -25 2 -6
16 -7 16 -17 -1 -9 -18 -11 -18 -34 4 -23 22 -25 22 -38 4 -11 -16 -17 -17
-29 -7 -10 9 -17 9 -21 3 -4 -6 -16 -7 -29 -2 -12 4 -39 6 -61 3 -27 -3 -37
-1 -32 7 4 6 4 10 -1 9 -4 -1 -27 -3 -50 -5z m2427 -1193 c0 -5 -2 -10 -4 -10
-3 0 -8 5 -11 10 -3 6 -1 10 4 10 6 0 11 -4 11 -10z m-3233 -542 c-3 -8 -6 -5
-6 6 -1 11 2 17 5 13 3 -3 4 -12 1 -19z m-312 -428 c16 -7 14 -9 -15 -9 -19 0
-42 4 -50 9 -11 7 -8 10 15 9 17 0 39 -4 50 -9z m-1665 -30 c-8 -5 -19 -10
-25 -10 -5 0 -3 5 5 10 8 5 20 10 25 10 6 0 3 -5 -5 -10z m30 -15 c-7 -9 -15
-13 -17 -11 -7 7 7 26 19 26 6 0 6 -6 -2 -15z m-347 -610 c-3 -9 -8 -14 -10
-11 -3 3 -2 9 2 15 9 16 15 13 8 -4z m-27 -143 c-11 -10 -15 4 -8 28 l7 25 3
-23 c2 -13 1 -26 -2 -30z m1884 -17 c62 -10 170 -65 255 -130 10 -8 22 -15 25
-15 4 0 7 -7 7 -15 0 -8 -6 -15 -13 -15 -6 0 -14 -6 -17 -14 -3 -7 -27 -17
-54 -20 -26 -4 -63 -12 -81 -17 -18 -6 -41 -7 -50 -3 -9 4 -21 8 -27 8 -5 1
-11 13 -13 29 -4 31 -28 36 -47 10 -10 -14 -17 -15 -36 -6 -24 12 -24 12 5 12
24 1 26 3 16 15 -6 8 -18 12 -26 9 -10 -4 -14 3 -14 27 0 26 3 30 19 25 11 -3
26 1 35 11 11 10 25 14 41 10 41 -10 28 12 -12 23 -21 6 -44 11 -50 11 -22 0
-14 18 10 23 16 3 14 5 -10 6 -26 1 -30 4 -26 22 3 11 9 16 12 11 3 -5 26 -13
51 -17z m288 -233 c4 -27 -6 -28 -24 -4 -18 23 -17 31 4 28 9 -2 18 -13 20
-24z m-2258 -124 c-6 -22 -17 -38 -25 -38 -9 0 -15 -9 -15 -21 0 -19 -1 -19
-16 -4 -14 14 -15 22 -4 61 9 31 16 41 21 32 6 -9 9 -4 9 14 0 14 3 35 7 45 6
16 8 15 14 -7 6 -20 8 -17 10 20 3 45 3 45 7 -10 2 -30 -2 -72 -8 -92z m200
82 c0 -19 -11 -26 -23 -14 -8 8 3 34 14 34 5 0 9 -9 9 -20z m5497 -12 c-3 -7
-5 -2 -5 12 0 14 2 19 5 13 2 -7 2 -19 0 -25z m-3482 -16 c-3 -3 -11 0 -18 7
-9 10 -8 11 6 5 10 -3 15 -9 12 -12z m-2045 -102 c0 -5 -4 -10 -10 -10 -5 0
-10 5 -10 10 0 6 5 10 10 10 6 0 10 -4 10 -10z m3916 -36 c-3 -9 -6 -18 -6
-20 0 -2 -4 -4 -9 -4 -5 0 -7 9 -4 20 3 11 10 20 15 20 6 0 7 -7 4 -16z m-94
-56 c-6 -6 -7 0 -4 19 5 21 7 23 10 9 2 -10 0 -22 -6 -28z m-2728 -64 c8 -8
26 -14 40 -14 26 0 35 -13 16 -25 -5 -3 -10 -17 -10 -31 0 -20 5 -24 29 -24
16 0 31 5 33 12 8 22 37 1 31 -22 -4 -16 0 -23 16 -27 20 -5 22 -10 16 -44 -6
-34 -4 -38 17 -41 20 -3 23 -8 20 -40 -2 -29 1 -38 13 -38 8 0 15 -9 15 -20 0
-13 7 -20 19 -20 11 0 23 -4 26 -10 3 -5 17 -10 31 -10 13 0 24 -4 24 -10 0
-5 14 -10 30 -10 23 0 30 4 30 20 0 15 -7 20 -29 20 -24 0 -29 5 -33 28 -9 64
30 125 47 72 3 -11 13 -20 21 -20 8 0 12 -4 9 -10 -4 -6 7 -10 27 -10 19 0 44
-7 56 -16 12 -8 22 -12 22 -7 0 10 20 -19 20 -31 0 -4 -7 -6 -15 -3 -8 4 -17
2 -20 -3 -3 -5 11 -12 32 -16 21 -4 41 -11 44 -16 3 -4 19 -2 35 6 31 15 134
11 134 -5 0 -5 27 -9 60 -9 33 0 60 4 60 10 0 15 39 12 56 -4 18 -18 18 -37 0
-61 -13 -18 -12 -21 12 -32 l27 -12 -27 5 c-25 6 -28 3 -28 -20 0 -16 6 -26
15 -26 8 0 15 -4 15 -10 0 -5 -7 -10 -15 -10 -10 0 -15 -10 -15 -30 0 -20 -5
-30 -15 -30 -10 0 -15 -10 -15 -28 0 -15 -6 -36 -14 -47 -7 -11 -17 -48 -21
-82 -4 -35 -11 -63 -16 -63 -5 0 -9 7 -9 16 0 14 -1 14 -16 0 -8 -9 -21 -16
-29 -16 -20 0 -47 -48 -48 -86 -1 -24 -6 -34 -21 -38 -16 -5 -18 -8 -8 -15 8
-4 12 -21 10 -37 -3 -25 -7 -29 -33 -29 -20 -1 -31 -6 -33 -18 -3 -12 -10 -15
-26 -11 -16 4 -25 -1 -35 -20 -8 -14 -19 -22 -27 -19 -17 6 -18 -20 -2 -46 15
-24 -7 -55 -34 -48 -15 4 -18 -1 -18 -33 0 -28 -5 -40 -17 -44 -23 -7 -149 -1
-186 9 -18 5 -33 3 -40 -4 -6 -6 -19 -11 -28 -11 -10 0 -20 -8 -22 -17 -4 -14
-5 -13 -6 4 -1 18 -9 22 -48 26 -27 3 -61 6 -77 6 -38 1 -39 3 -40 53 -1 57
-32 105 -71 112 -17 4 -31 2 -33 -4 -2 -5 -8 -10 -14 -10 -6 0 -8 13 -4 35 4
20 3 35 -2 35 -10 0 -16 20 -31 95 l-8 40 -2 -37 c-1 -33 -4 -38 -26 -38 -16
0 -25 6 -25 15 0 8 -4 15 -10 15 -5 0 -10 9 -10 20 0 13 -7 20 -19 20 -11 0
-21 8 -23 17 -3 16 -5 16 -18 2 -13 -14 -17 -13 -38 8 -13 13 -21 27 -17 31 4
4 10 1 12 -5 7 -19 23 -16 23 3 0 9 -10 25 -22 36 -17 14 -19 21 -10 27 14 9
6 91 -9 91 -5 0 -9 14 -9 31 0 17 4 28 10 24 16 -10 12 11 -5 25 -8 7 -15 19
-15 27 0 8 -7 21 -15 29 -20 20 -19 25 10 56 14 15 25 33 25 39 0 7 10 23 22
36 17 18 32 23 69 23 28 0 50 -5 53 -12 5 -10 7 -10 12 0 3 6 24 13 47 13 38
1 37 2 -17 10 -32 5 -61 11 -64 13 -7 8 43 54 64 58 12 3 2 7 -23 12 -33 6
-43 12 -43 27 0 10 5 19 10 19 6 0 10 -4 10 -10 0 -5 5 -10 10 -10 6 0 10 9
10 20 0 13 7 20 20 20 15 0 20 7 20 26 0 14 4 23 10 19 6 -3 10 -15 10 -26 0
-11 5 -17 10 -14 6 3 10 15 10 26 0 10 4 19 10 19 5 0 14 9 20 20 11 21 1 50
-27 79 -8 7 -12 20 -9 28 3 8 6 29 6 46 0 24 7 36 28 48 25 14 28 14 34 -4 4
-10 14 -25 22 -33z m986 26 c0 -10 -10 -28 -22 -40 -26 -24 -68 -27 -68 -5 0
8 6 15 14 15 7 0 22 11 32 25 22 30 44 33 44 5z m1650 -4 c0 -3 -4 -8 -10 -11
-5 -3 -10 -1 -10 4 0 6 5 11 10 11 6 0 10 -2 10 -4z m-2810 -141 c0 -8 -4 -15
-10 -15 -5 0 -7 7 -4 15 4 8 8 15 10 15 2 0 4 -7 4 -15z m-1032 -41 c-3 -14
-5 -12 -10 9 -3 19 -2 25 4 19 6 -6 8 -18 6 -28z m-20 4 c2 -13 -3 -18 -17
-18 -12 0 -21 2 -21 4 0 2 -3 12 -6 21 -5 13 -2 16 17 13 13 -1 25 -11 27 -20z
m2282 8 c0 -8 -51 -13 -56 -5 -3 5 9 9 25 9 17 0 31 -2 31 -4z m2327 -172 c-6
-6 16 -34 27 -34 3 0 6 9 6 20 0 11 5 20 10 20 6 0 10 -5 10 -11 0 -6 7 -9 15
-5 23 8 45 -4 45 -25 0 -17 7 -19 60 -18 41 1 66 -3 78 -14 9 -8 27 -18 40
-21 13 -5 22 -15 22 -27 0 -10 5 -19 10 -19 6 0 10 -9 10 -21 0 -15 5 -19 18
-15 25 8 91 -62 71 -75 -11 -7 -10 -9 5 -9 11 0 16 -5 13 -14 -4 -9 8 -20 34
-31 43 -20 55 -55 19 -55 -27 0 -26 -26 1 -33 12 -3 18 -10 14 -16 -3 -6 -2
-11 3 -11 5 0 12 -12 15 -27 l5 -27 -19 25 -19 24 -20 -25 c-11 -14 -20 -33
-20 -43 0 -10 -4 -15 -10 -12 -5 3 -10 -3 -10 -14 0 -12 -5 -21 -10 -21 -6 0
-15 -10 -20 -22 -8 -21 -9 -21 -10 -3 -1 19 -1 19 -14 3 -16 -22 -26 -23 -26
-3 0 8 -9 15 -20 15 -13 0 -20 7 -20 20 0 14 -7 20 -22 21 -17 1 -18 3 -6 6
10 2 15 10 11 19 -3 8 0 14 6 14 6 0 11 6 11 14 0 7 -18 18 -42 23 -25 6 -34
11 -20 12 12 0 22 6 22 12 0 6 -9 8 -20 4 -14 -5 -20 -2 -20 9 0 9 -9 16 -20
16 -15 0 -20 7 -20 28 0 33 -14 57 -28 48 -15 -9 -28 20 -35 73 -7 55 -19 68
-49 54 -35 -15 -48 -5 -48 38 0 45 -5 48 -31 18 -20 -23 -22 -21 -33 36 -17
85 -17 85 11 85 15 0 24 -3 20 -6z m-2374 -171 c-7 -2 -19 -2 -25 0 -7 3 -2 5
12 5 14 0 19 -2 13 -5z m2000 0 c-7 -2 -19 -2 -25 0 -7 3 -2 5 12 5 14 0 19
-2 13 -5z m93 -37 c15 4 29 0 40 -11 9 -9 25 -14 35 -12 11 3 19 1 19 -4 0 -5
12 -9 28 -9 19 0 45 -17 92 -60 35 -33 68 -60 74 -60 5 0 7 -3 3 -6 -3 -4 6
-22 20 -41 15 -19 28 -44 29 -56 1 -12 5 -33 9 -47 6 -21 5 -23 -6 -12 -25 23
-32 13 -25 -38 6 -46 5 -50 -14 -50 -13 0 -20 -7 -20 -20 0 -11 -6 -20 -13
-20 -8 0 -19 -10 -26 -22 -6 -13 -9 -15 -7 -5 4 12 0 17 -15 17 -11 0 -27 7
-35 15 -9 8 -29 15 -45 15 -18 0 -29 5 -29 14 0 8 -12 18 -27 24 -26 9 -56 30
-93 66 -8 8 -28 20 -45 27 -16 8 -35 20 -40 27 -12 15 -47 36 -87 53 -35 14
-40 59 -8 59 11 0 20 5 20 10 0 6 -8 10 -17 10 -32 0 -44 16 -48 63 -3 32 0
47 10 51 8 3 17 1 19 -3 3 -5 23 -11 44 -15 39 -6 143 -45 152 -57 10 -13 50
-29 72 -29 l23 0 -25 19 c-13 11 -28 17 -32 15 -4 -3 -17 5 -28 16 -12 12 -30
22 -40 23 -20 1 -36 40 -20 45 6 2 10 13 11 25 l0 22 11 -22 c8 -17 17 -21 34
-17z m-721 -36 c3 -5 19 -10 34 -10 16 0 42 -7 57 -15 l29 -15 -35 0 c-92 0
-136 -12 -155 -40 -17 -26 -21 -27 -39 -14 -11 8 -28 14 -38 14 -14 0 -18 8
-18 33 0 18 5 38 12 45 15 15 144 16 153 2z m1702 -77 c-3 -10 -5 -4 -5 12 0
17 2 24 5 18 2 -7 2 -21 0 -30z m-1780 -90 c-3 -10 -5 -4 -5 12 0 17 2 24 5
18 2 -7 2 -21 0 -30z m91 25 c16 -16 15 -28 -2 -28 -7 0 -16 9 -19 20 -6 23 3
26 21 8z m-40 -60 c19 -19 15 -50 -5 -46 -10 2 -17 11 -17 21 1 9 -4 17 -12
17 -8 0 -14 5 -14 10 0 14 33 13 48 -2z m-2705 -55 c-7 -2 -19 -2 -25 0 -7 3
-2 5 12 5 14 0 19 -2 13 -5z m2785 -19 l27 -26 -40 6 c-22 3 -51 6 -64 6 -24
0 -24 0 -5 19 26 27 50 26 82 -5z m482 12 c0 -11 -19 -15 -25 -6 -3 5 1 10 9
10 9 0 16 -2 16 -4z m-435 -74 c-3 -3 -11 0 -18 7 -9 10 -8 11 6 5 10 -3 15
-9 12 -12z m-2788 -24 c-3 -7 -5 -2 -5 12 0 14 2 19 5 13 2 -7 2 -19 0 -25z
m2653 12 c0 -11 -7 -20 -15 -20 -8 0 -15 9 -15 20 0 11 7 20 15 20 8 0 15 -9
15 -20z m202 -20 c22 0 28 -5 28 -21 0 -13 4 -18 12 -13 7 4 8 3 4 -4 -4 -8 3
-16 18 -22 17 -6 24 -14 20 -24 -5 -12 -11 -13 -25 -5 -11 5 -23 8 -28 5 -4
-3 -6 6 -3 19 4 24 -8 31 -40 26 -5 0 -8 6 -8 14 0 8 -7 15 -15 15 -8 0 -15 8
-15 17 0 13 3 14 12 5 7 -7 25 -12 40 -12z m1359 -174 c-6 -14 -15 -26 -21
-26 -6 0 -4 13 5 31 19 36 30 33 16 -5z m-3288 -33 c-7 -2 -21 -2 -30 0 -10 3
-4 5 12 5 17 0 24 -2 18 -5z m-50 -80 c-7 -2 -19 -2 -25 0 -7 3 -2 5 12 5 14
0 19 -2 13 -5z m887 -53 c0 -11 -4 -20 -10 -20 -5 0 -10 9 -10 20 0 11 5 20
10 20 6 0 10 -9 10 -20z m-1210 -28 c0 -11 -8 -18 -20 -19 -24 -2 -25 1 -4 21
20 20 24 20 24 -2z m-1790 -111 c0 -5 -9 -7 -20 -4 -11 3 -20 7 -20 9 0 2 9 4
20 4 11 0 20 -4 20 -9z m1710 -136 c0 -8 -7 -15 -15 -15 -13 0 -14 3 -3 15 16
18 18 18 18 0z m-150 -71 c0 -8 9 -14 20 -14 11 0 20 6 20 14 0 14 21 26 46
26 8 0 14 -8 14 -18 0 -10 9 -24 19 -31 16 -12 17 -18 8 -33 -7 -10 -17 -18
-24 -18 -7 0 -13 -7 -13 -15 0 -8 -8 -15 -18 -15 -24 0 -42 -19 -43 -44 0 -12
-3 -15 -6 -8 -2 6 -13 12 -24 12 -12 0 -19 7 -19 20 0 22 -15 27 -23 8 -4 -10
-7 -10 -15 0 -11 15 -4 62 9 62 5 0 9 11 9 25 0 27 20 56 33 48 4 -2 7 -11 7
-19z m3777 -26 c-3 -7 -5 -2 -5 12 0 14 2 19 5 13 2 -7 2 -19 0 -25z m-5580
-134 c-3 -3 -12 -4 -19 -1 -8 3 -5 6 6 6 11 1 17 -2 13 -5z m1850 -106 c-3 -8
-6 -5 -6 6 -1 11 2 17 5 13 3 -3 4 -12 1 -19z m1300 -604 c-3 -3 -12 -4 -19
-1 -8 3 -5 6 6 6 11 1 17 -2 13 -5z m1853 -149 c0 -8 -2 -15 -4 -15 -2 0 -12
-3 -21 -6 -15 -6 -15 -4 -4 15 16 25 29 27 29 6z m-3010 -61 c0 -13 -35 -33
-57 -34 -16 0 -20 5 -16 20 4 15 14 20 39 20 19 0 34 -3 34 -6z m2960 2 c0 -3
-4 -8 -10 -11 -5 -3 -10 -1 -10 4 0 6 5 11 10 11 6 0 10 -2 10 -4z m410 -86
c0 -5 -2 -10 -4 -10 -3 0 -8 5 -11 10 -3 6 -1 10 4 10 6 0 11 -4 11 -10z
m-3279 -153 c-10 -9 -11 -8 -5 6 3 10 9 15 12 12 3 -3 0 -11 -7 -18z m195
-155 c-12 -12 -18 8 -10 35 l8 28 4 -28 c2 -16 1 -31 -2 -35z m47 -22 c-7 -25
-23 -37 -23 -16 0 8 5 18 10 21 6 4 7 11 4 17 -4 6 -2 8 4 5 5 -4 8 -16 5 -27z
m-73 -14 c0 -8 -4 -18 -10 -21 -5 -3 -10 3 -10 14 0 12 5 21 10 21 6 0 10 -6
10 -14z m-2313 -38 c-3 -7 -5 -2 -5 12 0 14 2 19 5 13 2 -7 2 -19 0 -25z
m2468 2 c3 -5 -1 -10 -9 -10 -9 0 -16 5 -16 10 0 6 4 10 9 10 6 0 13 -4 16
-10z m475 -40 c0 -5 -4 -10 -10 -10 -5 0 -10 5 -10 10 0 6 5 10 10 10 6 0 10
-4 10 -10z m55 -10 c3 -5 1 -10 -4 -10 -6 0 -11 5 -11 10 0 6 2 10 4 10 3 0 8
-4 11 -10z m-448 -52 c-2 -13 -4 -5 -4 17 -1 22 1 32 4 23 2 -10 2 -28 0 -40z
m223 32 c0 -11 -4 -20 -10 -20 -5 0 -10 9 -10 20 0 11 5 20 10 20 6 0 10 -9
10 -20z m233 -40 c3 -13 0 -20 -9 -20 -8 0 -14 10 -14 26 0 28 15 25 23 -6z
m-128 -10 c3 -5 1 -10 -4 -10 -6 0 -11 5 -11 10 0 6 2 10 4 10 3 0 8 -4 11
-10z m1348 -256 c8 -8 -3 -34 -14 -34 -5 0 -9 9 -9 20 0 19 11 26 23 14z
m-108 -14 c22 0 23 -2 14 -30 -6 -16 -15 -30 -20 -30 -5 0 -9 -8 -9 -19 0 -10
-11 -30 -24 -44 -14 -15 -20 -29 -15 -32 5 -4 9 -18 8 -33 0 -18 -3 -22 -7
-12 -9 19 -30 19 -42 0 -5 -8 -11 -12 -13 -10 -3 3 -7 51 -10 107 l-6 102 37
4 c20 2 43 2 50 0 8 -2 24 -3 37 -3z m-2381 -32 c-3 -4 15 -8 40 -8 39 0 46
-3 46 -20 0 -11 7 -20 15 -20 9 0 18 -7 21 -15 4 -8 16 -15 28 -15 11 0 34 -7
50 -15 15 -8 36 -15 45 -15 10 0 21 -3 25 -7 4 -5 26 -12 49 -18 28 -7 45 -18
52 -32 7 -17 18 -23 42 -23 33 0 37 -6 33 -45 -1 -16 1 -18 11 -7 15 14 33 16
24 2 -4 -6 5 -10 20 -10 19 0 25 -5 23 -17 -2 -12 4 -19 20 -21 12 -2 22 -8
22 -13 0 -5 7 -9 15 -9 8 0 15 -9 15 -19 0 -17 4 -18 30 -11 17 5 31 7 31 4 1
-2 2 -8 3 -13 2 -20 18 -24 81 -22 41 2 65 -2 65 -8 0 -6 9 -11 19 -11 10 0
21 -7 25 -15 3 -8 11 -15 18 -15 7 0 25 -11 40 -25 15 -14 34 -25 43 -25 8 0
15 -6 15 -14 0 -8 3 -23 6 -33 5 -15 4 -15 -5 -3 -8 11 -10 5 -8 -26 1 -35 4
-40 20 -36 10 3 21 11 24 18 3 8 19 14 38 14 29 0 32 -2 27 -25 -2 -15 0 -25
7 -25 6 0 11 -7 11 -15 0 -8 6 -15 14 -15 17 0 37 -48 34 -80 -3 -27 -19 -50
-30 -44 -15 9 -38 -10 -38 -32 0 -26 -14 -32 -24 -11 -5 10 -7 10 -12 0 -3 -7
-17 -13 -30 -13 -13 0 -24 -5 -24 -11 0 -8 11 -9 33 -5 29 6 30 5 12 -7 -42
-27 -73 -33 -166 -33 -77 1 -99 4 -113 19 -24 24 -45 19 -60 -13 -3 -8 -4 -3
-2 12 2 20 -2 29 -15 33 -11 4 -19 15 -19 26 0 12 -7 19 -20 19 -11 0 -20 4
-20 9 0 5 -18 12 -40 16 -22 4 -40 11 -40 16 0 5 -8 9 -18 9 -10 0 -28 7 -40
16 -18 12 -22 25 -22 70 0 45 -3 54 -18 54 -10 0 -27 -7 -38 -15 -26 -19 -64
-19 -64 0 0 9 -7 18 -15 21 -8 3 -17 14 -20 25 -4 10 -15 19 -26 19 -10 0 -19
5 -19 10 0 6 -9 10 -21 10 -12 0 -23 8 -26 20 -4 15 -14 20 -37 20 -20 0 -35
-7 -44 -20 -14 -23 -78 -29 -69 -7 3 9 -8 18 -29 26 -29 11 -34 17 -34 45 0
30 -2 32 -30 28 l-30 -4 0 68 c0 48 -3 64 -10 54 -8 -12 -10 -11 -10 7 0 12
-5 44 -12 72 -8 38 -16 51 -29 51 -25 0 -39 30 -39 85 0 62 15 75 84 75 31 0
56 5 56 10 0 6 8 5 19 -2 11 -7 17 -16 15 -20z m3366 -34 c0 -2 -9 -4 -20 -4
-11 0 -20 4 -20 9 0 5 9 7 20 4 11 -3 20 -7 20 -9z m241 -22 c13 -11 18 -21
12 -25 -6 -4 -20 2 -32 12 -38 33 -20 45 20 13z m0 -52 c6 0 7 -5 4 -10 -5 -8
-11 -7 -20 0 -8 7 -20 8 -26 4 -8 -5 -9 -3 -5 5 5 7 15 10 23 7 8 -3 19 -6 24
-6z m-161 -25 c18 -10 20 -14 8 -15 -23 0 -48 11 -48 21 0 12 11 11 40 -6z
m200 5 c0 -5 -4 -10 -10 -10 -5 0 -10 5 -10 10 0 6 5 10 10 10 6 0 10 -4 10
-10z m-360 -45 c0 -8 -4 -15 -10 -15 -5 0 -10 7 -10 15 0 8 5 15 10 15 6 0 10
-7 10 -15z m290 0 c14 -16 10 -18 -14 -9 -9 3 -16 10 -16 15 0 14 16 11 30 -6z
m-1410 -5 c0 -5 11 -10 25 -10 19 0 25 -5 24 -22 0 -13 -3 -18 -5 -12 -3 8
-14 8 -39 0 -31 -10 -35 -15 -36 -46 0 -19 -3 -28 -6 -20 -3 8 -11 18 -16 22
-6 4 -4 13 7 23 9 10 20 30 23 46 5 27 23 41 23 19z m1335 0 c3 -5 1 -10 -4
-10 -6 0 -11 5 -11 10 0 6 2 10 4 10 3 0 8 -4 11 -10z m234 -22 c5 -13 7 -25
5 -27 -5 -6 -34 26 -34 38 0 20 20 11 29 -11z m-5265 -27 c-6 -6 -24 19 -24
34 1 6 7 1 15 -9 8 -11 12 -22 9 -25z m5141 -12 c10 -15 -1 -23 -20 -15 -9 3
-13 10 -10 16 8 13 22 13 30 -1z m-1642 -16 c-13 -2 -33 -2 -45 0 -13 2 -3 4
22 4 25 0 35 -2 23 -4z m1678 -40 c-9 -16 -10 -14 -11 12 0 21 3 26 11 18 8
-8 8 -16 0 -30z m34 8 c-4 -13 0 -24 12 -31 17 -11 17 -11 0 -6 -10 3 -23 6
-28 6 -13 0 -11 18 4 35 17 19 19 18 12 -4z m-1478 -13 c-3 -8 -6 -5 -6 6 -1
11 2 17 5 13 3 -3 4 -12 1 -19z m2480 0 c-3 -8 -6 -5 -6 6 -1 11 2 17 5 13 3
-3 4 -12 1 -19z m-2584 -9 l32 -1 -29 -10 c-28 -10 -47 0 -45 27 0 6 3 4 6 -2
2 -7 19 -13 36 -14z m1582 -39 c3 -5 -3 -10 -14 -10 -12 0 -21 5 -21 10 0 6 6
10 14 10 8 0 18 -4 21 -10z m100 -20 c3 -5 1 -10 -4 -10 -6 0 -11 5 -11 10 0
6 2 10 4 10 3 0 8 -4 11 -10z m-1875 -10 c0 -5 -13 -10 -28 -10 -15 0 -33 -5
-40 -12 -9 -9 -12 -7 -12 10 0 19 5 22 40 22 22 0 40 -4 40 -10z m1900 -10 c0
-5 -5 -10 -11 -10 -5 0 -7 5 -4 10 3 6 8 10 11 10 2 0 4 -4 4 -10z m-1475
-107 c-3 -29 -10 -53 -14 -53 -4 0 -14 -23 -21 -51 -8 -28 -23 -57 -33 -63
-10 -6 -27 -25 -37 -42 -23 -37 -107 -124 -119 -124 -5 0 -16 -12 -26 -26 -11
-17 -23 -24 -35 -21 -11 3 -31 -7 -50 -24 -17 -16 -40 -29 -50 -29 -10 0 -22
-4 -25 -10 -10 -16 -65 -12 -71 5 -4 8 -7 27 -7 42 -1 16 -6 32 -12 36 -7 6
-6 10 3 14 6 2 12 15 12 28 0 18 4 22 20 18 23 -6 26 -19 8 -26 -10 -4 -9 -8
2 -16 24 -17 31 2 20 57 -10 55 -4 112 12 112 5 0 9 -10 8 -22 -4 -40 2 -44 9
-8 4 25 11 35 24 34 15 -2 16 4 11 33 -5 29 -3 37 17 51 42 29 69 41 83 36 9
-3 17 3 21 17 6 17 9 19 16 8 7 -11 10 -9 15 8 5 18 11 22 29 17 15 -4 24 0
29 11 3 9 10 13 16 10 6 -3 13 1 16 9 3 9 12 16 19 16 7 0 18 7 26 16 7 8 21
13 30 11 10 -3 26 3 36 13 17 16 18 16 21 -9 2 -14 1 -49 -3 -78z m-431 79
c-15 -5 -21 -15 -20 -34 1 -21 -3 -28 -16 -28 -11 0 -18 7 -18 19 0 11 -6 22
-12 24 -22 9 14 27 52 26 26 -1 30 -3 14 -7z m2102 -7 c4 -8 13 -15 20 -15 28
0 164 -64 164 -77 0 -8 7 -16 15 -19 21 -9 8 -24 -20 -24 -13 0 -32 11 -43 25
-16 20 -24 23 -48 16 l-29 -9 25 -10 c23 -10 23 -11 4 -11 -12 -1 -31 7 -43
18 -18 15 -19 20 -6 25 8 3 22 3 30 0 8 -4 15 -3 15 1 0 12 -33 34 -50 35 -19
0 -72 45 -63 54 11 10 23 7 29 -9z m128 -151 c5 -14 4 -15 -9 -4 -17 14 -19
20 -6 20 5 0 12 -7 15 -16z m-239 -14 c-3 -5 -16 -10 -28 -9 -20 1 -20 2 3 9
14 4 26 8 28 9 2 1 0 -3 -3 -9z m348 -7 c-7 -2 -19 -2 -25 0 -7 3 -2 5 12 5
14 0 19 -2 13 -5z m-299 -12 c3 -4 3 -11 0 -14 -8 -8 -34 3 -34 14 0 11 27 12
34 0z m220 -15 c32 -16 42 -25 32 -29 -9 -4 -22 0 -30 8 -8 8 -19 15 -24 15
-5 0 -15 7 -22 15 -17 20 -11 19 44 -9z m-99 -14 c-3 -3 -11 0 -18 7 -9 10 -8
11 6 5 10 -3 15 -9 12 -12z m-2168 -14 c-3 -8 -6 -5 -6 6 -1 11 2 17 5 13 3
-3 4 -12 1 -19z m2196 -18 c3 -11 1 -18 -4 -14 -5 3 -9 12 -9 20 0 20 7 17 13
-6z m58 -48 c-13 -2 -27 0 -32 5 -6 6 3 7 23 4 28 -4 29 -6 9 -9z m-3668 -29
c-7 -2 -19 -2 -25 0 -7 3 -2 5 12 5 14 0 19 -2 13 -5z m1017 -7 c0 -3 -4 -8
-10 -11 -5 -3 -10 -1 -10 4 0 6 5 11 10 11 6 0 10 -2 10 -4z m74 -61 c3 -8 1
-15 -4 -15 -6 0 -10 7 -10 15 0 8 2 15 4 15 2 0 6 -7 10 -15z m2841 -29 c19
-8 35 -13 35 -10 0 3 10 -2 22 -10 12 -9 31 -16 41 -16 16 0 18 -5 13 -27 -3
-16 -3 -22 0 -15 8 18 24 15 24 -6 0 -10 7 -27 15 -38 8 -10 14 -26 14 -34 0
-10 -2 -11 -6 -2 -2 6 -11 12 -19 12 -8 0 -14 5 -14 12 0 6 -3 8 -6 5 -4 -4
-23 6 -43 22 -20 15 -43 26 -51 24 -13 -4 -13 -3 -1 5 12 8 9 15 -13 35 -15
14 -37 32 -49 41 -28 19 -7 20 38 2z m-2861 -32 c9 -24 7 -31 -4 -14 -8 12
-10 10 -10 -8 0 -14 -4 -21 -11 -16 -8 4 -9 -1 -4 -17 7 -21 6 -22 -7 -11 -14
11 -14 16 1 47 18 38 26 43 35 19z m2781 -42 c-8 -8 -25 10 -19 20 4 6 9 5 15
-3 4 -7 6 -15 4 -17z m-2815 -53 c0 -14 -17 -10 -23 5 -4 10 -1 13 9 9 7 -3
14 -9 14 -14z m2785 -27 c-3 -3 -11 0 -18 7 -9 10 -8 11 6 5 10 -3 15 -9 12
-12z m195 2 c0 -2 -7 -4 -15 -4 -8 0 -15 4 -15 10 0 5 7 7 15 4 8 -4 15 -8 15
-10z m200 -200 c0 -3 -4 -3 -9 0 -5 4 -11 0 -14 -6 -3 -9 -11 -7 -25 8 -12 12
-18 24 -15 28 6 6 63 -21 63 -30z m211 -10 c16 -18 20 -28 12 -31 -20 -7 8
-31 29 -25 10 2 18 -1 18 -7 0 -7 -5 -9 -11 -5 -6 3 -15 1 -19 -5 -5 -9 -11
-9 -23 3 -22 22 -44 20 -50 -5 -5 -17 -9 -19 -26 -9 -12 6 -21 16 -21 23 0 8
-3 8 -9 -1 -6 -10 -10 -7 -15 12 -3 14 -11 26 -16 26 -6 0 -10 7 -10 15 0 8
-5 15 -12 15 -6 0 -9 3 -5 6 3 4 28 -6 54 -22 48 -28 69 -31 88 -12 7 7 2 9
-17 4 -22 -5 -26 -3 -22 9 4 9 0 15 -7 16 -8 0 -5 4 6 9 29 12 29 12 56 -16z
m-187 -25 c-31 -12 -39 -10 -19 5 11 8 24 12 29 8 5 -3 1 -9 -10 -13z m-64
-90 c0 -4 -7 -6 -15 -3 -8 4 -15 10 -15 15 0 4 7 6 15 3 8 -4 15 -10 15 -15z
m63 14 c-7 -2 -19 -2 -25 0 -7 3 -2 5 12 5 14 0 19 -2 13 -5z m77 -15 c0 -13
-23 -5 -28 10 -2 7 2 10 12 6 9 -3 16 -11 16 -16z m175 12 c3 -5 -1 -10 -9
-10 -9 0 -16 5 -16 10 0 6 4 10 9 10 6 0 13 -4 16 -10z m-55 -32 c0 -13 -23
-5 -28 10 -2 7 2 10 12 6 9 -3 16 -11 16 -16z m-368 -113 c5 -26 1 -30 -20
-17 -7 5 -10 16 -6 25 9 24 21 21 26 -8z m338 -10 c11 -13 10 -14 -4 -9 -9 3
-16 10 -16 15 0 13 6 11 20 -6z m-315 -35 c3 -5 1 -10 -4 -10 -6 0 -11 5 -11
10 0 6 2 10 4 10 3 0 8 -4 11 -10z m38 -37 c-4 -10 -2 -14 4 -10 12 8 39 -20
29 -30 -10 -10 -49 33 -42 46 11 17 16 13 9 -6z m-3653 -37 c0 -2 -9 -6 -20
-9 -11 -3 -18 -1 -14 4 5 9 34 13 34 5z m-1670 -36 c0 -5 -9 -10 -20 -10 -11
0 -20 5 -20 10 0 6 9 10 20 10 11 0 20 -4 20 -10z m5621 -85 c0 -5 -4 -11 -10
-13 -6 -2 -11 3 -11 12 0 9 -8 16 -20 16 -11 0 -20 5 -20 10 0 6 12 5 31 -2
17 -7 30 -17 30 -23z"/>
<path d="M6770 5705 c0 -8 5 -15 10 -15 6 0 10 7 10 15 0 8 -4 15 -10 15 -5 0
-10 -7 -10 -15z"/>
<path d="M5920 5230 c0 -5 5 -10 10 -10 6 0 10 5 10 10 0 6 -4 10 -10 10 -5 0
-10 -4 -10 -10z"/>
<path d="M5690 4910 c0 -5 11 -10 25 -10 14 0 25 5 25 10 0 6 -11 10 -25 10
-14 0 -25 -4 -25 -10z"/>
<path d="M5682 4550 c5 -16 58 -25 58 -10 0 5 -6 10 -14 10 -8 0 -22 3 -32 7
-11 4 -15 2 -12 -7z"/>
<path d="M5720 4505 c0 -25 12 -44 24 -39 18 7 12 47 -7 50 -9 1 -17 -4 -17
-11z"/>
<path d="M6608 4483 c6 -2 18 -2 25 0 6 3 1 5 -13 5 -14 0 -19 -2 -12 -5z"/>
<path d="M5875 4430 c-4 -6 5 -10 19 -10 14 0 26 5 26 10 0 6 -9 10 -19 10
-11 0 -23 -4 -26 -10z"/>
<path d="M5963 4243 c9 -2 23 -2 30 0 6 3 -1 5 -18 5 -16 0 -22 -2 -12 -5z"/>
<path d="M6200 4175 c0 -9 6 -12 15 -9 8 4 12 10 9 15 -8 14 -24 10 -24 -6z"/>
<path d="M8860 4700 c0 -5 5 -10 10 -10 6 0 10 5 10 10 0 6 -4 10 -10 10 -5 0
-10 -4 -10 -10z"/>
<path d="M9130 4660 c20 -13 53 -13 45 0 -3 6 -18 10 -33 10 -21 0 -24 -2 -12
-10z"/>
<path d="M8880 4610 c0 -5 14 -10 31 -10 17 0 28 4 24 10 -3 6 -17 10 -31 10
-13 0 -24 -4 -24 -10z"/>
<path d="M9225 4610 c-3 -5 -1 -10 4 -10 6 0 11 5 11 10 0 6 -2 10 -4 10 -3 0
-8 -4 -11 -10z"/>
<path d="M5920 3630 c0 -5 5 -10 10 -10 6 0 10 5 10 10 0 6 -4 10 -10 10 -5 0
-10 -4 -10 -10z"/>
<path d="M6560 1290 c0 -5 5 -10 10 -10 6 0 10 5 10 10 0 6 -4 10 -10 10 -5 0
-10 -4 -10 -10z"/>
<path d="M6698 923 c7 -3 16 -2 19 1 4 3 -2 6 -13 5 -11 0 -14 -3 -6 -6z"/>
<path d="M4426 8771 c-7 -11 18 -33 27 -24 4 3 7 12 7 20 0 15 -26 18 -34 4z"/>
<path d="M4453 8546 c3 -33 10 -62 16 -64 6 -2 11 -12 11 -23 0 -10 5 -19 10
-19 6 0 10 -8 10 -19 0 -15 7 -18 35 -17 26 1 35 5 35 19 0 9 -4 17 -10 17 -5
0 -10 17 -10 38 0 21 -7 47 -15 58 -8 10 -15 29 -15 42 0 12 -6 22 -12 23 -7
0 -24 2 -37 3 -23 3 -23 1 -18 -58z"/>
<path d="M2925 8129 c-4 -6 -4 -13 -1 -16 8 -8 36 5 36 17 0 13 -27 13 -35 -1z"/>
<path d="M2880 8075 c0 -10 15 -17 43 -22 37 -6 39 -7 17 -14 l-25 -7 27 -1
c35 -1 43 13 21 39 -21 24 -83 28 -83 5z"/>
<path d="M3428 7963 c7 -3 16 -2 19 1 4 3 -2 6 -13 5 -11 0 -14 -3 -6 -6z"/>
<path d="M3634 7949 c-3 -6 -1 -16 5 -22 6 -6 11 -20 11 -30 0 -13 5 -17 15
-13 9 3 15 0 15 -9 0 -8 8 -15 19 -15 10 0 30 -11 45 -25 16 -15 35 -23 49
-21 12 2 28 -1 35 -6 8 -8 12 -6 12 6 0 10 -4 15 -8 12 -10 -6 -52 30 -52 44
0 16 -42 23 -51 9 -7 -11 -9 -10 -9 4 0 10 -8 17 -18 17 -23 0 -42 19 -42 42
0 20 -15 24 -26 7z"/>
<path d="M3690 7930 c0 -5 5 -10 10 -10 6 0 10 5 10 10 0 6 -4 10 -10 10 -5 0
-10 -4 -10 -10z"/>
<path d="M4011 7927 c-18 -18 -13 -27 14 -27 15 0 25 6 25 14 0 19 -25 27 -39
13z"/>
<path d="M4348 7896 c-3 -13 1 -30 7 -39 10 -14 13 -14 27 -1 25 26 39 -3 23
-49 -17 -50 -21 -53 -40 -33 -20 19 -35 13 -35 -15 0 -14 -7 -19 -29 -19 -41
0 -66 10 -50 21 9 5 4 10 -16 15 -19 5 -30 3 -33 -4 -2 -7 -21 -12 -42 -12
-34 0 -38 -3 -43 -30 -8 -35 -20 -39 -33 -9 -9 20 -11 21 -27 5 -9 -10 -17
-25 -17 -34 0 -12 3 -13 12 -4 19 19 28 14 28 -14 0 -40 -41 -29 -52 14 -8 30
-28 45 -28 21 0 -6 -5 -7 -12 -2 -7 4 -26 8 -41 9 -23 1 -27 -2 -22 -17 4 -11
2 -19 -4 -19 -6 0 -11 15 -11 34 0 19 -4 38 -10 41 -5 3 -10 1 -10 -5 0 -6 -4
-9 -9 -6 -8 5 -39 -23 -33 -31 8 -11 -1 -25 -20 -32 -17 -6 -31 -2 -53 15 -72
55 -179 74 -229 40 -30 -19 -92 -106 -75 -106 11 0 10 -7 -8 -93 -3 -18 -13
-29 -29 -33 -24 -6 -34 -24 -14 -24 6 0 31 -10 56 -21 81 -38 186 -4 288 93
41 40 51 45 67 35 14 -9 21 -9 31 1 17 17 28 15 28 -4 0 -10 6 -14 15 -10 11
4 15 -2 15 -23 0 -28 -2 -29 -50 -28 -27 0 -60 -4 -72 -10 -13 -6 -42 -20 -65
-30 -43 -18 -51 -27 -33 -38 6 -3 10 -14 10 -25 0 -11 10 -20 25 -24 16 -4 23
-11 19 -18 -4 -6 -3 -8 4 -5 14 9 43 -3 36 -14 -3 -5 -1 -9 5 -9 17 0 2 -25
-22 -35 -12 -6 -20 -14 -17 -20 7 -15 123 -8 135 8 16 21 65 50 65 39 0 -16
50 -24 66 -11 11 9 12 14 3 19 -14 9 -3 30 17 30 13 0 18 -12 15 -32 0 -5 7
-8 16 -8 25 0 135 -58 120 -63 -6 -2 9 -7 36 -11 30 -5 47 -12 47 -21 0 -8 10
-21 22 -29 12 -9 17 -16 10 -16 -6 0 -12 -9 -12 -19 0 -15 -10 -21 -40 -26
-22 -4 -40 -11 -40 -16 0 -5 -18 -9 -39 -9 -45 0 -58 -12 -38 -32 10 -10 38
-13 93 -12 132 2 159 10 216 65 32 31 59 49 74 49 15 0 24 6 24 15 0 9 12 27
27 39 l28 24 2 188 c2 104 5 203 7 221 4 28 1 33 -29 47 -20 10 -32 23 -31 33
1 14 -8 19 -36 21 -33 3 -38 6 -39 30 -1 15 -1 32 1 37 1 6 -4 4 -11 -2 -21
-21 -41 -16 -37 10 2 15 -5 27 -25 40 -37 23 -54 22 -59 -7z m92 -146 c0 -5
-2 -10 -4 -10 -3 0 -8 5 -11 10 -3 6 -1 10 4 10 6 0 11 -4 11 -10z m-33 -45
c-7 -14 -15 -25 -19 -25 -13 0 -9 48 5 53 21 7 26 -2 14 -28z m-247 -20 c-7
-8 -18 -15 -24 -14 -6 0 -5 3 3 6 11 5 11 7 0 14 -12 8 -12 11 1 19 21 13 37
-5 20 -25z m140 2 c12 3 20 0 20 -7 0 -7 8 -9 23 -5 17 5 19 4 7 -4 -13 -10
-13 -12 0 -22 13 -9 12 -10 -2 -5 -33 10 -48 -4 -48 -45 0 -21 -4 -39 -8 -39
-11 0 -32 68 -32 102 0 26 12 46 18 30 2 -6 12 -8 22 -5z m270 -35 c0 -26 -2
-27 -42 -23 l-43 5 38 10 c20 5 37 15 37 23 0 7 2 13 5 13 3 0 5 -12 5 -28z
m-850 -5 c0 -5 4 -6 9 -2 12 7 41 -22 41 -40 0 -13 -21 -36 -66 -74 -15 -13
-16 -10 -10 41 6 45 4 57 -8 61 -24 10 -19 22 9 22 14 0 25 -4 25 -8z m-170
-20 c0 -7 -5 -18 -12 -25 -14 -14 4 -82 28 -107 9 -9 11 -15 4 -15 -6 0 -8 -4
-5 -10 3 -5 -3 -10 -15 -10 -24 0 -60 53 -60 90 0 14 9 40 20 58 20 33 40 42
40 19z m550 -7 c0 -11 -4 -20 -9 -20 -5 0 -11 9 -14 20 -3 13 0 20 9 20 8 0
14 -9 14 -20z m-435 -20 c3 -5 -3 -10 -15 -10 -12 0 -18 5 -15 10 3 6 10 10
15 10 5 0 12 -4 15 -10z m715 -84 c0 -3 -4 -8 -10 -11 -5 -3 -10 -1 -10 4 0 6
5 11 10 11 6 0 10 -2 10 -4z m30 -51 c0 -26 -3 -33 -15 -29 -15 6 -21 45 -8
57 15 15 23 5 23 -28z m20 -97 c0 -5 -7 -8 -15 -8 -17 0 -18 2 -9 25 5 13 8
14 15 3 5 -7 9 -16 9 -20z m60 -8 c8 -5 11 -10 5 -10 -5 0 -17 5 -25 10 -8 5
-10 10 -5 10 6 0 17 -5 25 -10z"/>
<path d="M3866 7892 c-2 -4 -1 -14 3 -21 6 -10 10 -9 14 3 6 16 -8 32 -17 18z"/>
<path d="M4120 7850 c0 -19 3 -21 12 -12 9 9 9 15 0 24 -9 9 -12 7 -12 -12z"/>
<path d="M3970 7832 c0 -22 34 -52 60 -52 11 0 20 7 20 15 0 8 -6 12 -14 9
-14 -5 -46 20 -46 37 0 5 -4 9 -10 9 -5 0 -10 -8 -10 -18z"/>
<path d="M4625 7805 c-6 -41 -4 -50 15 -67 l22 -20 -7 58 c-9 76 -21 87 -30
29z"/>
<path d="M3852 7820 c0 -14 2 -19 5 -12 2 6 2 18 0 25 -3 6 -5 1 -5 -13z"/>
<path d="M3880 7824 c0 -8 5 -12 10 -9 6 3 10 10 10 16 0 5 -4 9 -10 9 -5 0
-10 -7 -10 -16z"/>
<path d="M4060 7814 c0 -8 5 -12 10 -9 6 4 8 11 5 16 -9 14 -15 11 -15 -7z"/>
<path d="M3925 7809 c-4 -6 -5 -13 -2 -16 7 -7 27 6 27 18 0 12 -17 12 -25 -2z"/>
<path d="M3946 7755 c4 -8 8 -15 10 -15 2 0 4 7 4 15 0 8 -4 15 -10 15 -5 0
-7 -7 -4 -15z"/>
<path d="M5530 7660 c-8 -5 -10 -10 -5 -10 6 0 17 5 25 10 8 5 11 10 5 10 -5
0 -17 -5 -25 -10z"/>
<path d="M5397 7383 c-4 -3 -7 -11 -7 -17 0 -6 5 -5 12 2 6 6 9 14 7 17 -3 3
-9 2 -12 -2z"/>
<path d="M7246 7323 c-10 -30 2 -72 15 -52 8 12 10 12 18 -1 6 -8 13 -11 17
-7 4 4 -2 15 -13 25 -11 9 -23 26 -25 37 -4 19 -5 19 -12 -2z"/>
<path d="M3800 7249 c0 -8 17 -25 38 -39 42 -28 122 -71 122 -66 0 2 20 -2 45
-10 26 -7 45 -9 45 -4 0 6 7 10 15 10 21 0 19 18 -4 25 -10 3 -34 21 -52 40
-19 19 -42 35 -51 35 -9 0 -20 5 -24 11 -9 15 -84 5 -96 -13 -7 -10 -11 -9
-23 6 -11 14 -15 16 -15 5z"/>
<path d="M4561 7214 c0 -11 3 -14 6 -6 3 7 2 16 -1 19 -3 4 -6 -2 -5 -13z"/>
<path d="M5310 7175 c-8 -9 -8 -15 -2 -15 12 0 26 19 19 26 -2 2 -10 -2 -17
-11z"/>
<path d="M4505 7171 c-3 -5 -1 -12 5 -16 5 -3 10 1 10 9 0 18 -6 21 -15 7z"/>
<path d="M4812 7091 c-11 -7 -11 -9 1 -14 12 -4 14 -16 10 -49 -6 -43 -23 -78
-23 -45 0 9 -4 17 -10 17 -16 0 -11 -37 6 -44 31 -12 44 -6 44 19 0 14 5 25
10 25 6 0 10 -9 10 -20 0 -12 7 -20 16 -20 11 0 14 -5 10 -16 -3 -9 -6 -18 -6
-20 0 -2 -9 -4 -20 -4 -11 0 -20 -4 -20 -10 0 -5 7 -10 16 -10 17 0 44 -23 44
-38 0 -11 24 -22 46 -22 16 0 19 36 4 45 -5 3 -10 15 -10 26 0 11 -4 18 -9 15
-5 -3 -11 13 -14 35 -6 42 -30 79 -54 79 -7 0 -13 6 -13 13 0 23 -24 47 -38
38z"/>
<path d="M4093 7083 c9 -2 23 -2 30 0 6 3 -1 5 -18 5 -16 0 -22 -2 -12 -5z"/>
<path d="M3490 6630 c0 -5 5 -10 10 -10 6 0 10 5 10 10 0 6 -4 10 -10 10 -5 0
-10 -4 -10 -10z"/>
<path d="M3251 5694 c0 -11 3 -14 6 -6 3 7 2 16 -1 19 -3 4 -6 -2 -5 -13z"/>
<path d="M3422 4973 c3 -26 6 -28 40 -25 127 11 124 52 -4 52 -37 0 -39 -2
-36 -27z"/>
<path d="M3648 4783 c6 -2 18 -2 25 0 6 3 1 5 -13 5 -14 0 -19 -2 -12 -5z"/>
<path d="M3543 4763 c-13 -2 -23 -9 -23 -14 0 -5 -9 -9 -20 -9 -11 0 -20 -6
-20 -13 0 -11 10 -12 43 -7 49 8 157 39 157 46 0 5 -107 3 -137 -3z"/>
<path d="M7876 3799 c-9 -29 -16 -68 -16 -86 0 -18 -4 -33 -10 -33 -5 0 -10
-17 -11 -37 0 -21 -4 -47 -8 -58 -8 -20 8 -45 27 -45 6 0 12 -6 15 -12 2 -7 8
8 12 34 4 26 15 54 26 64 16 14 17 26 12 75 -4 38 -2 59 5 59 14 0 3 40 -19
68 l-18 23 -15 -52z"/>
<path d="M7792 3805 c0 -16 2 -22 5 -12 2 9 2 23 0 30 -3 6 -5 -1 -5 -18z"/>
<path d="M8968 3823 c6 -2 18 -2 25 0 6 3 1 5 -13 5 -14 0 -19 -2 -12 -5z"/>
<path d="M7810 3748 c0 -25 3 -29 10 -18 13 20 13 50 0 50 -5 0 -10 -15 -10
-32z"/>
<path d="M7745 3686 c-10 -49 -3 -63 18 -41 20 19 19 66 0 72 -7 3 -15 -10
-18 -31z"/>
<path d="M9630 3430 c0 -14 26 -23 41 -15 8 6 7 10 -2 16 -19 12 -39 11 -39
-1z"/>
<path d="M7672 3340 c0 -14 2 -19 5 -12 2 6 2 18 0 25 -3 6 -5 1 -5 -13z"/>
<path d="M2430 3320 c0 -5 7 -10 16 -10 8 0 12 5 9 10 -3 6 -10 10 -16 10 -5
0 -9 -4 -9 -10z"/>
<path d="M3948 3255 c-3 -14 -1 -25 3 -25 5 0 9 11 9 25 0 14 -2 25 -4 25 -2
0 -6 -11 -8 -25z"/>
<path d="M3935 3110 c3 -5 8 -10 11 -10 2 0 4 5 4 10 0 6 -5 10 -11 10 -5 0
-7 -4 -4 -10z"/>
<path d="M6450 2906 c0 -2 7 -6 15 -10 8 -3 15 -1 15 4 0 6 -7 10 -15 10 -8 0
-15 -2 -15 -4z"/>
<path d="M2160 2690 c0 -11 4 -20 9 -20 5 0 7 9 4 20 -3 11 -7 20 -9 20 -2 0
-4 -9 -4 -20z"/>
<path d="M1 2644 c0 -11 3 -14 6 -6 3 7 2 16 -1 19 -3 4 -6 -2 -5 -13z"/>
<path d="M16 2589 c-9 -11 -15 -28 -13 -37 4 -14 6 -12 12 6 5 14 13 21 21 18
19 -7 27 9 11 23 -10 8 -18 5 -31 -10z"/>
<path d="M7080 2550 c0 -5 9 -10 20 -10 11 0 20 5 20 10 0 6 -9 10 -20 10 -11
0 -20 -4 -20 -10z"/>
<path d="M2220 2460 c0 -6 4 -9 9 -6 5 4 12 1 14 -4 3 -6 4 -5 3 2 -3 15 -26
23 -26 8z"/>
<path d="M3555 2370 c-3 -5 1 -10 10 -10 9 0 13 5 10 10 -3 6 -8 10 -10 10 -2
0 -7 -4 -10 -10z"/>
<path d="M3920 2370 c0 -5 7 -7 15 -4 8 4 15 8 15 10 0 2 -7 4 -15 4 -8 0 -15
-4 -15 -10z"/>
<path d="M3025 2190 c10 -11 20 -20 22 -20 2 0 -1 9 -7 20 -6 11 -16 20 -22
20 -6 0 -3 -9 7 -20z"/>
<path d="M3040 2140 c0 -5 9 -10 20 -10 11 0 20 5 20 10 0 6 -9 10 -20 10 -11
0 -20 -4 -20 -10z"/>
<path d="M3105 2100 c13 -15 14 -20 5 -20 -10 0 -11 -3 -4 -10 6 -6 9 -33 6
-60 -4 -48 -4 -50 22 -50 24 0 26 3 26 40 0 22 -4 40 -8 40 -5 0 -14 18 -21
40 -7 25 -18 40 -28 40 -14 0 -14 -2 2 -20z"/>
<path d="M7770 2090 c0 -5 5 -10 10 -10 6 0 10 -7 10 -17 0 -9 3 -14 6 -10 8
8 -5 47 -17 47 -5 0 -9 -4 -9 -10z"/>
<path d="M3000 2006 c0 -9 5 -16 10 -16 6 0 10 4 10 9 0 6 -4 13 -10 16 -5 3
-10 -1 -10 -9z"/>
<path d="M3663 2013 c-7 -3 -13 -8 -13 -13 0 -11 28 -21 34 -12 7 12 -8 29
-21 25z"/>
<path d="M3080 1932 c0 -5 9 -12 21 -15 13 -3 19 -1 16 6 -5 15 -37 22 -37 9z"/>
<path d="M3185 1930 c-3 -5 -1 -10 4 -10 6 0 11 5 11 10 0 6 -2 10 -4 10 -3 0
-8 -4 -11 -10z"/>
<path d="M4076 1892 c-3 -6 5 -17 19 -26 14 -9 25 -12 25 -6 0 5 -4 10 -10 10
-5 0 -9 5 -7 11 3 15 -19 23 -27 11z"/>
<path d="M3194 1848 c-7 -29 -7 -52 -2 -63 6 -9 7 -27 4 -41 -4 -13 -2 -24 3
-24 12 0 21 88 13 135 l-7 40 -11 -47z"/>
<path d="M3128 1873 c6 -2 18 -2 25 0 6 3 1 5 -13 5 -14 0 -19 -2 -12 -5z"/>
<path d="M3025 1850 c-3 -6 -1 -10 4 -10 6 0 11 -9 11 -20 0 -11 5 -20 10 -20
6 0 10 -9 10 -20 0 -14 7 -20 21 -20 16 0 19 4 14 23 -9 29 -62 80 -70 67z"/>
<path d="M3680 1820 c0 -5 9 -10 20 -10 11 0 20 5 20 10 0 6 -9 10 -20 10 -11
0 -20 -4 -20 -10z"/>
<path d="M3757 1723 c-3 -5 -1 -17 4 -28 7 -17 8 -17 8 8 1 27 -4 34 -12 20z"/>
<path d="M3060 1706 c0 -14 61 -86 73 -86 4 0 7 9 7 20 0 13 -7 20 -19 20 -13
0 -21 9 -26 30 -7 30 -35 43 -35 16z"/>
<path d="M3240 1690 c0 -28 -2 -30 -21 -19 -17 9 -20 8 -17 -3 3 -7 20 -18 39
-24 19 -6 35 -19 37 -28 5 -23 22 -20 22 4 0 11 -4 20 -10 20 -5 0 -10 9 -10
20 0 11 -4 20 -10 20 -5 0 -10 9 -10 20 0 11 -4 20 -10 20 -5 0 -10 -14 -10
-30z"/>
<path d="M7720 1695 c0 -8 7 -15 15 -15 8 0 15 7 15 15 0 8 -7 15 -15 15 -8 0
-15 -7 -15 -15z"/>
<path d="M3732 1643 c9 -2 19 -12 21 -21 3 -12 5 -10 6 6 1 17 -4 22 -21 21
-16 -1 -18 -3 -6 -6z"/>
<path d="M3840 1620 c0 -11 5 -20 10 -20 6 0 10 9 10 20 0 11 -4 20 -10 20 -5
0 -10 -9 -10 -20z"/>
<path d="M3160 1608 c0 -9 5 -20 10 -23 13 -8 13 5 0 25 -8 13 -10 13 -10 -2z"/>
<path d="M3876 1565 c-3 -8 -14 -15 -25 -15 -12 0 -21 -9 -26 -27 -5 -21 -8
-24 -16 -12 -5 7 -9 10 -10 4 0 -5 -4 -1 -8 9 -7 19 -8 19 -13 -2 -4 -12 -1
-28 6 -35 7 -6 23 -45 36 -86 14 -40 31 -76 38 -79 16 -6 33 16 30 38 -1 8 2
25 6 37 6 19 13 22 49 20 38 -3 42 -6 46 -32 4 -30 4 -30 11 -5 6 23 8 22 19
-18 7 -23 17 -42 24 -41 37 4 38 0 38 -101 0 -14 -1 -32 -2 -40 -1 -8 -1 -43
-1 -76 2 -54 6 -67 35 -101 17 -22 41 -44 51 -49 11 -5 24 -18 30 -29 6 -11
14 -22 17 -25 8 -6 24 -53 21 -62 -1 -5 14 -7 33 -5 35 2 44 10 25 22 -5 3
-10 19 -10 34 0 15 -13 45 -30 67 -16 21 -30 43 -30 48 0 5 -8 15 -17 22 -12
9 -14 13 -5 14 7 0 20 -7 28 -15 9 -8 23 -15 31 -15 14 0 14 3 -2 20 -10 11
-15 28 -12 39 2 10 1 25 -4 32 -7 11 -9 11 -9 1 0 -7 -5 -10 -10 -7 -6 4 -10
12 -9 18 3 28 -2 47 -18 63 -13 13 -14 19 -5 22 17 5 15 47 -2 62 -8 6 -13 17
-10 24 3 7 -2 19 -11 26 -8 7 -15 22 -15 34 0 11 -7 32 -15 46 -7 14 -20 39
-28 56 -25 53 -72 92 -136 114 -72 24 -87 25 -95 5z"/>
<path d="M3316 1529 c-9 -44 -8 -49 8 -49 7 0 16 -11 18 -25 4 -17 1 -25 -8
-25 -26 0 -14 -18 16 -25 17 -4 30 -13 30 -22 0 -8 7 -21 15 -29 8 -9 15 -29
15 -45 0 -16 5 -29 11 -29 14 0 4 93 -11 98 -6 2 -10 15 -10 28 0 31 -18 67
-29 59 -5 -2 -8 7 -8 22 0 15 -6 29 -12 31 -6 2 -11 12 -11 23 0 31 -17 22
-24 -12z"/>
<path d="M3532 1420 c0 -14 2 -19 5 -12 2 6 2 18 0 25 -3 6 -5 1 -5 -13z"/>
<path d="M9500 1320 c0 -5 10 -10 23 -10 18 0 19 2 7 10 -19 13 -30 13 -30 0z"/>
<path d="M3443 1279 c-16 -16 -17 -39 -3 -39 6 0 3 -11 -6 -25 -16 -25 -12
-45 9 -45 17 -1 71 -81 72 -107 1 -12 9 -30 18 -41 9 -10 17 -28 17 -40 0 -15
6 -22 20 -22 11 0 20 -7 20 -15 0 -23 22 -63 38 -70 11 -4 13 0 9 15 -3 11 1
23 9 28 10 5 6 12 -16 27 -24 16 -30 27 -30 57 0 28 -5 38 -20 43 -11 3 -20
13 -20 21 0 8 -4 14 -9 14 -5 0 -12 18 -16 40 -4 25 -12 40 -21 40 -8 0 -14 9
-14 20 0 11 -4 20 -10 20 -5 0 -10 9 -10 20 0 11 -4 20 -9 20 -5 0 -11 12 -13
26 -2 20 -5 23 -15 13z"/>
<path d="M9780 1265 c27 -14 36 -13 25 4 -3 6 -16 11 -28 11 -21 -1 -21 -1 3
-15z"/>
<path d="M2828 1225 c2 -14 6 -25 8 -25 2 0 4 11 4 25 0 14 -4 25 -9 25 -4 0
-6 -11 -3 -25z"/>
<path d="M3860 1161 c0 -23 4 -41 9 -41 5 0 11 -15 14 -32 11 -64 20 -93 34
-110 8 -9 17 -35 20 -57 3 -23 10 -41 14 -41 5 0 9 -8 9 -18 0 -9 9 -23 20
-30 11 -7 20 -18 20 -26 0 -7 6 -19 14 -26 8 -6 13 -17 10 -25 -3 -7 -1 -16 5
-20 6 -3 11 -26 11 -51 0 -32 4 -44 15 -44 10 0 15 -10 15 -29 0 -16 6 -31 15
-35 8 -3 15 -17 15 -31 0 -14 5 -25 10 -25 6 0 10 -13 10 -30 0 -27 2 -29 25
-20 22 8 25 7 25 -11 0 -25 23 -71 45 -89 12 -10 15 -23 10 -51 -5 -30 -2 -41
16 -58 13 -12 36 -21 52 -21 26 0 28 -3 23 -23 -4 -16 1 -31 14 -45 11 -12 20
-26 20 -32 0 -5 9 -19 20 -30 24 -24 27 -70 5 -70 -8 0 -15 -9 -15 -20 0 -23
9 -25 45 -8 21 9 28 9 34 0 5 -9 37 -12 102 -11 106 2 177 16 99 19 -25 1 -50
2 -55 1 -6 0 -25 13 -43 29 -18 17 -38 30 -43 30 -18 0 -39 28 -45 59 -4 17
-10 31 -14 31 -13 0 -50 69 -50 92 0 11 -7 34 -15 51 -8 18 -15 52 -17 77 -3
41 -6 45 -30 48 -27 3 -68 43 -68 67 0 7 -7 15 -15 19 -8 3 -25 27 -37 53 -13
26 -33 56 -45 66 -12 9 -27 34 -33 55 -12 37 -63 125 -87 150 -7 7 -13 31 -13
52 0 21 -9 55 -21 74 -15 26 -20 50 -19 93 2 80 1 90 -8 76 -4 -6 -7 -43 -7
-82 0 -39 -2 -71 -4 -71 -12 0 -30 40 -31 68 0 17 -4 32 -10 32 -5 0 -10 6
-10 14 0 8 -5 16 -11 18 -6 2 -14 19 -18 38 -10 50 -31 51 -31 1z"/>
<path d="M3936 1193 c-11 -11 -6 -23 9 -23 8 0 15 4 15 9 0 13 -16 22 -24 14z"/>
<path d="M8360 1170 c0 -5 5 -10 11 -10 5 0 7 5 4 10 -3 6 -8 10 -11 10 -2 0
-4 -4 -4 -10z"/>
<path d="M2882 1130 c0 -14 2 -19 5 -12 2 6 2 18 0 25 -3 6 -5 1 -5 -13z"/>
<path d="M2906 1092 c-3 -6 -1 -14 5 -17 14 -9 20 -2 10 14 -6 8 -11 9 -15 3z"/>
<path d="M3952 1065 c0 -16 2 -22 5 -12 2 9 2 23 0 30 -3 6 -5 -1 -5 -18z"/>
<path d="M2945 1030 c-3 -5 -1 -10 4 -10 6 0 11 5 11 10 0 6 -2 10 -4 10 -3 0
-8 -4 -11 -10z"/>
<path d="M3640 852 c0 -5 9 -17 20 -27 20 -18 20 -17 20 8 0 20 -5 27 -20 27
-11 0 -20 -4 -20 -8z"/>
<path d="M4592 848 c3 -7 15 -15 28 -16 21 -4 22 -2 7 12 -19 19 -40 21 -35 4z"/>
<path d="M4270 811 c0 -6 4 -13 10 -16 6 -3 7 1 4 9 -7 18 -14 21 -14 7z"/>
<path d="M4313 808 c0 -7 -4 -21 -8 -31 -6 -13 -3 -16 9 -11 9 3 16 12 16 20
0 8 0 17 1 21 0 4 -4 9 -9 11 -5 1 -9 -3 -9 -10z"/>
<path d="M3150 771 c0 -6 4 -13 10 -16 6 -3 7 1 4 9 -7 18 -14 21 -14 7z"/>
<path d="M3711 728 c1 -29 4 -42 6 -28 3 14 9 30 15 37 7 9 5 17 -6 28 -15 15
-16 12 -15 -37z"/>
<path d="M3275 630 c3 -5 8 -10 11 -10 2 0 4 5 4 10 0 6 -5 10 -11 10 -5 0 -7
-4 -4 -10z"/>
<path d="M3297 599 c7 -7 15 -10 18 -7 3 3 -2 9 -12 12 -14 6 -15 5 -6 -5z"/>
<path d="M3105 570 c3 -5 8 -10 11 -10 2 0 4 5 4 10 0 6 -5 10 -11 10 -5 0 -7
-4 -4 -10z"/>
<path d="M3132 554 c3 -17 21 -21 26 -6 1 5 -4 12 -13 16 -11 4 -15 1 -13 -10z"/>
<path d="M7610 540 c0 -5 5 -10 10 -10 6 0 10 5 10 10 0 6 -4 10 -10 10 -5 0
-10 -4 -10 -10z"/>
<path d="M3150 469 c0 -5 5 -7 10 -4 6 3 10 8 10 11 0 2 -4 4 -10 4 -5 0 -10
-5 -10 -11z"/>
<path d="M3440 451 c0 -6 4 -13 10 -16 6 -3 7 1 4 9 -7 18 -14 21 -14 7z"/>
<path d="M3470 410 c0 -5 5 -10 11 -10 5 0 7 5 4 10 -3 6 -8 10 -11 10 -2 0
-4 -4 -4 -10z"/>
<path d="M3532 358 c3 -7 13 -15 23 -17 17 -3 17 -2 3 13 -20 19 -31 21 -26 4z"/>
<path d="M3595 314 c9 -9 19 -13 23 -10 3 4 0 11 -8 16 -24 15 -33 11 -15 -6z"/>
<path d="M3330 301 c0 -10 7 -21 15 -25 11 -4 15 1 15 19 0 16 -6 25 -15 25
-8 0 -15 -9 -15 -19z"/>
<path d="M3644 286 c11 -9 24 -16 30 -16 12 0 7 5 -24 19 -24 11 -24 11 -6 -3z"/>
<path d="M3367 260 c-6 -22 -3 -24 36 -34 31 -7 38 9 7 19 -11 3 -20 13 -20
21 0 21 -17 17 -23 -6z"/>
<path d="M3680 256 c0 -2 7 -6 15 -10 8 -3 15 -1 15 4 0 6 -7 10 -15 10 -8 0
-15 -2 -15 -4z"/>
<path d="M3450 223 c0 -12 5 -25 10 -28 13 -8 13 15 0 35 -8 12 -10 11 -10 -7z"/>
<path d="M4425 230 c3 -5 8 -10 11 -10 2 0 4 5 4 10 0 6 -5 10 -11 10 -5 0 -7
-4 -4 -10z"/>
<path d="M3490 181 c0 -10 8 -25 17 -32 15 -12 16 -12 10 4 -4 10 -7 25 -7 33
0 8 -4 14 -10 14 -5 0 -10 -8 -10 -19z"/>
<path d="M3832 179 c2 -7 10 -15 17 -17 8 -3 12 1 9 9 -2 7 -10 15 -17 17 -8
3 -12 -1 -9 -9z"/>
<path d="M3880 150 c20 -13 33 -13 25 0 -3 6 -14 10 -23 10 -15 0 -15 -2 -2
-10z"/>
<path d="M11080 141 c0 -10 69 -25 77 -17 7 6 -41 26 -63 26 -8 0 -14 -4 -14
-9z"/>
<path d="M3942 128 c2 -6 15 -13 28 -15 24 -3 24 -3 5 11 -24 18 -38 20 -33 4z"/>
<path d="M3570 109 c10 -17 14 -18 27 -8 13 12 13 14 -4 20 -30 12 -34 10 -23
-12z"/>
<path d="M9745 110 c3 -5 8 -10 11 -10 2 0 4 5 4 10 0 6 -5 10 -11 10 -5 0 -7
-4 -4 -10z"/>
<path d="M3650 87 c0 -19 16 -31 24 -18 3 5 -1 14 -9 21 -12 10 -15 10 -15 -3z"/>
<path d="M8265 90 c-3 -5 -1 -10 4 -10 6 0 11 5 11 10 0 6 -2 10 -4 10 -3 0
-8 -4 -11 -10z"/>
<path d="M4075 70 c3 -5 10 -10 16 -10 5 0 9 5 9 10 0 6 -7 10 -16 10 -8 0
-12 -4 -9 -10z"/>
<path d="M4120 60 c0 -5 5 -10 10 -10 6 0 10 5 10 10 0 6 -4 10 -10 10 -5 0
-10 -4 -10 -10z"/>
</g>
</svg>
