<?xml version="1.0" standalone="no"?>
<!DOCTYPE svg PUBLIC "-//W3C//DTD SVG 20010904//EN"
 "http://www.w3.org/TR/2001/REC-SVG-20010904/DTD/svg10.dtd">
<svg version="1.0" xmlns="http://www.w3.org/2000/svg"
 width="512.000000pt" height="512.000000pt" viewBox="0 0 512.000000 512.000000"
 preserveAspectRatio="xMidYMid meet">

<g transform="translate(0.000000,512.000000) scale(0.100000,-0.100000)"
fill="#000000" stroke="none">
<path d="M2330 5110 c-494 -48 -950 -230 -1350 -538 -195 -150 -448 -432 -594
-662 -63 -99 -186 -351 -230 -471 -49 -134 -102 -340 -128 -499 -31 -195 -31
-565 0 -760 45 -276 116 -498 237 -745 132 -269 269 -460 489 -681 221 -220
412 -357 681 -489 247 -121 469 -192 745 -237 195 -31 565 -31 760 0 276 45
498 116 745 237 269 132 460 269 681 489 220 221 357 412 489 681 88 179 132
296 180 476 63 240 78 371 78 649 0 278 -15 409 -78 649 -48 180 -92 297 -180
476 -132 269 -269 460 -489 681 -221 220 -412 357 -681 489 -246 121 -474 193
-740 235 -147 23 -475 34 -615 20z m468 -281 c702 -76 1343 -481 1708 -1080
405 -663 444 -1493 105 -2184 -123 -250 -244 -418 -441 -615 -259 -259 -556
-444 -892 -555 -984 -323 -2048 46 -2620 910 -329 496 -451 1107 -338 1691 40
206 107 400 206 594 344 678 1002 1142 1754 1235 131 16 390 18 518 4z"/>
<path d="M1575 3408 c-88 -16 -210 -83 -278 -151 -90 -91 -157 -239 -157 -349
l0 -38 140 0 140 0 0 33 c1 117 134 237 265 237 131 0 264 -120 265 -237 l0
-33 140 0 140 0 0 38 c0 110 -67 258 -157 349 -127 128 -317 185 -498 151z"/>
<path d="M3325 3408 c-88 -16 -210 -83 -278 -151 -90 -91 -157 -239 -157 -349
l0 -38 140 0 140 0 0 33 c1 117 134 237 265 237 131 0 264 -120 265 -237 l0
-33 140 0 140 0 0 38 c0 110 -67 258 -157 349 -127 128 -317 185 -498 151z"/>
<path d="M1344 1950 c-60 -39 -111 -75 -112 -81 -7 -19 95 -146 203 -254 436
-437 1039 -580 1630 -389 204 67 428 202 594 360 94 89 231 255 231 279 0 10
-191 139 -216 147 -6 2 -39 -34 -73 -79 -183 -242 -469 -419 -791 -489 -119
-26 -381 -26 -499 0 -325 70 -609 247 -795 496 -27 36 -52 68 -56 73 -3 4 -56
-24 -116 -63z"/>
</g>
</svg>
